<?xml version="1.0" encoding="utf-8"?>
<!-- Generator: Adobe Illustrator 22.0.0, SVG Export Plug-In . SVG Version: 6.00 Build 0)  -->
<svg version="1.1" id="Layer_1" xmlns="http://www.w3.org/2000/svg" xmlns:xlink="http://www.w3.org/1999/xlink" x="0px" y="0px"
	 viewBox="0 0 1366 768" style="enable-background:new 0 0 1366 768;" xml:space="preserve">
<style type="text/css">
	.st0{fill:#24C4F9;}
	.st1{fill:#061E26;}
	.st2{fill:#F98715;}
	.st3{fill:#271502;}
</style>
<path class="st0" d="M-1251.5-74.1c0-82.8,0-165.6,0-248.4c0-26.5,18.6-50.8,44.3-57.3c6.8-1.7,14-2.8,21-2.8
	c95.5-0.2,191-0.1,286.4-0.2c20.2,0,35.8,8.9,49.5,23.1c15.1,15.5,31.1,30.1,46.4,45.4c15.3,15.3,30.7,30.6,44.9,46.8
	c8.3,9.4,11.2,21.6,11.2,34.4c-0.1,136.1-0.2,272.3,0.1,408.4c0,25.9-21.4,51-43.9,56.9c-6.7,1.7-13.7,2.8-20.6,2.8
	c-125.6,0.2-251.3,0-376.9,0.2c-32.9,0.1-62.9-28.4-62.6-62.4C-1251,90.5-1251.5,8.2-1251.5-74.1z M-1230.6-73.7
	c0,25.2,0,50.3,0,75.5c0,56.5-0.1,113,0.1,169.5c0.1,16.4,7.6,29,22.1,37.1c8.5,4.8,17.8,5.1,27.2,5.1c83,0,166,0,249,0
	c41.3,0,82.7,0.1,124-0.4c21.1-0.2,39-19.6,39-39.2c-0.2-135.8-0.1-271.7-0.1-407.5c0-10.9-4.1-19.7-11.7-27.1
	c-12.6-12.4-25.3-24.6-37.9-37c-17.6-17.3-35-34.7-52.8-51.8c-8-7.7-17.7-12.3-29.1-12.3c-95.7,0-191.3,0-287,0.1
	c-3.6,0-7.4,0.3-10.8,1.4c-20.1,6.2-31.9,22.5-31.9,43.8C-1230.7-235.7-1230.7-154.7-1230.6-73.7z"/>
<path class="st1" d="M-1230.7-73.7c0-81,0-162,0-243c0-21.3,11.8-37.6,31.9-43.8c3.4-1.1,7.2-1.4,10.8-1.4
	c95.7-0.1,191.3-0.1,287-0.1c11.5,0,21.1,4.6,29.1,12.3c17.7,17.1,35.2,34.5,52.8,51.8c12.6,12.4,25.3,24.6,37.9,37
	c7.6,7.4,11.7,16.2,11.7,27.1c-0.1,135.8-0.2,271.7,0.1,407.5c0,19.6-17.8,39-39,39.2c-41.3,0.5-82.7,0.4-124,0.4c-83,0-166,0-249,0
	c-9.4,0-18.7-0.3-27.2-5.1c-14.5-8.1-22-20.7-22.1-37.1c-0.2-56.5-0.1-113-0.1-169.5C-1230.6-23.3-1230.6-48.5-1230.7-73.7z
	 M-1113.3-153.2c0,33,0,65.9,0,98.9c0,5.9,0.7,6.6,6.6,6.6c7.3,0,14.7,0,22,0c6,0,6.6-0.6,6.7-6.5c0-20.8,0-41.6,0-62.4
	c0-6.6,0-6.2,6.7-6.6c11.9-0.7,23.9-0.9,35.6-3c12.4-2.2,23.5-8.1,32.4-17.6c16.4-17.6,20.1-39.1,16.6-61.4
	c-5.1-32.7-25.4-50-56.9-53.8c-20.5-2.5-41.5-1-62.3-0.9c-6.8,0-7.4,1.2-7.4,8.3C-1113.3-218.8-1113.2-186-1113.3-153.2z
	 M-968.6-69.8C-968.6-69.8-968.6-69.8-968.6-69.8c0,1.8,0,3.7,0,5.5c0,10.3,0.3,10.9,10.3,13.9c15.7,4.8,31.3,6,47.6,2.4
	c31.9-7.1,46.8-42.1,28.9-69.6c-6.4-9.8-16.5-15.2-26.4-20.7c-8-4.4-16-8.9-23.4-14.2c-7.3-5.3-7.5-12.1-2.1-19.1
	c5.2-6.6,12.5-8.7,20.1-7.2c8.3,1.7,16.4,5,24.4,8c5.1,2,6.8,1.3,6.8-4.2c0.1-6.7,0-13.3,0-20c0-3.7-1.8-6-5.1-7.1
	c-17.7-5.6-35.4-7.1-53.2-0.4c-23.5,8.8-35.1,40-23.1,62.1c6.2,11.5,16.1,18.7,27.2,24.7c7.8,4.3,15.6,8.8,22.8,14.1
	c2.9,2.2,5.3,6.7,5.8,10.4c1.2,9-6.4,16.2-16.2,17.1c-13.7,1.2-25.9-3.1-37.7-9.5c-5.2-2.9-6.6-1.9-6.6,4.1
	C-968.6-76.1-968.6-73-968.6-69.8z"/>
<path class="st0" d="M1586.9,33.5c0-32.8,0-65.6,0-98.4c0-7.1,0.6-8.3,7.4-8.3c20.8-0.1,41.8-1.6,62.3,0.9
	c31.4,3.8,51.7,21.1,56.9,53.8c3.5,22.3-0.2,43.8-16.6,61.4c-8.9,9.5-19.9,15.3-32.4,17.6c-11.7,2.1-23.7,2.3-35.6,3
	c-6.7,0.4-6.7,0.1-6.7,6.6c0,20.8,0,41.6,0,62.4c0,5.9-0.6,6.5-6.7,6.5c-7.3,0-14.7,0-22,0c-5.9,0-6.6-0.7-6.6-6.6
	C1586.9,99.4,1586.9,66.5,1586.9,33.5z M1621.3-5.1C1621.3-5.1,1621.3-5.1,1621.3-5.1c0,10.5,0,21,0,31.5c0,3.5,1.1,5.3,4.9,5.2
	c6.7-0.2,13.4,0.2,20-0.5c9.4-0.9,18.4-3.2,24.9-11c9-10.7,9.5-23.2,6.9-35.9c-2.6-13-11-21.4-24-23.8c-8.9-1.6-18.1-1.1-27.2-1.7
	c-4.2-0.3-5.6,1.7-5.5,5.7C1621.4-25.4,1621.3-15.2,1621.3-5.1z"/>
<path class="st0" d="M1650.3,257.4c0-3.2,0-6.3,0-9.5c0.1-6.1,1.4-7,6.6-4.1c11.7,6.4,24,10.7,37.7,9.5c9.9-0.8,17.4-8,16.2-17.1
	c-0.5-3.7-2.8-8.2-5.8-10.4c-7.1-5.3-14.9-9.9-22.8-14.1c-11.2-6-21-13.2-27.2-24.7c-12-22.1-0.4-53.3,23.1-62.1
	c17.8-6.7,35.5-5.2,53.2,0.4c3.4,1.1,5.2,3.4,5.1,7.1c-0.1,6.7,0,13.3,0,20c-0.1,5.5-1.8,6.1-6.8,4.2c-8-3.1-16.1-6.3-24.4-8
	c-7.5-1.5-14.9,0.5-20.1,7.2c-5.4,6.9-5.1,13.8,2.1,19.1c7.4,5.4,15.4,9.8,23.4,14.2c9.9,5.5,20,10.9,26.4,20.7
	c17.9,27.4,3,62.5-28.9,69.6c-16.3,3.6-32,2.4-47.6-2.4c-10-3.1-10.3-3.6-10.3-13.9C1650.3,261,1650.3,259.2,1650.3,257.4
	C1650.3,257.4,1650.3,257.4,1650.3,257.4z"/>
<path class="st1" d="M-1078.8-191.8c0-10.2,0.1-20.3,0-30.5c-0.1-4,1.3-6,5.5-5.7c9.1,0.6,18.3,0.1,27.2,1.7
	c12.9,2.3,21.4,10.8,24,23.8c2.6,12.7,2,25.2-6.9,35.9c-6.5,7.7-15.5,10-24.9,11c-6.6,0.7-13.3,0.2-20,0.5c-3.8,0.1-5-1.7-4.9-5.2
	C-1078.8-170.8-1078.8-181.3-1078.8-191.8C-1078.8-191.8-1078.8-191.8-1078.8-191.8z"/>
<path class="st2" d="M457.7,384.7c0-77.9,0.2-155.9-0.1-233.8c-0.2-35.5,32.5-58.3,58.1-58.2c90.8,0.3,181.7,0.3,272.5,0
	c17.2-0.1,31.4,6.2,43.3,17.7c28.3,27.5,56,55.5,84.1,83.1c11.6,11.4,17.3,25.5,17.3,41.3c0.2,127.1,0.2,254.2,0.1,381.4
	c0,34.3-26.6,60.4-60.9,60.4c-118.1,0-236.2,0.2-354.3-0.1c-34.3-0.1-60.5-28-60.2-60.2C458.1,539.1,457.7,461.9,457.7,384.7z
	 M477.8,385.1c0,76.5,0,152.9,0,229.4c0,21.2,10.7,35.1,31.3,40c4.7,1.1,9.7,1.1,14.5,1.1c114.2,0.1,228.4,0,342.6,0
	c2.9,0,5.8-0.1,8.8-0.3c21.8-1.3,37.2-17.4,37.2-39.1c0-126.9,0-253.8,0.1-380.6c0-11.4-4-20.7-12.1-28.7
	c-27.5-26.9-54.9-53.9-82.3-80.9c-9.1-9-19.8-13.4-32.7-13.4c-87.7,0.2-175.3,0.1-263,0.1c-28.2,0-44.3,16.2-44.3,44.4
	C477.8,233.1,477.8,309.1,477.8,385.1z"/>
<path class="st3" d="M477.8,385.1c0-76,0-152,0-227.9c0-28.2,16.1-44.4,44.3-44.4c87.7,0,175.3,0.1,263-0.1c13,0,23.6,4.4,32.7,13.4
	c27.4,27,54.8,54,82.3,80.9c8.1,7.9,12.1,17.2,12.1,28.7c-0.1,126.9,0,253.8-0.1,380.6c0,21.7-15.4,37.8-37.2,39.1
	c-2.9,0.2-5.8,0.3-8.8,0.3c-114.2,0-228.4,0-342.6,0c-4.8,0-9.8,0-14.5-1.1c-20.6-4.9-31.3-18.8-31.3-40
	C477.8,538,477.8,461.5,477.8,385.1z M721.1,408.7c2.7,0,5.4,0,8,0c9.2,0,9.8-0.8,7.2-9.7c-17.9-60.6-35.9-121.2-53.8-181.8
	c-1.3-4.6-3.9-6.2-8.5-6.1c-7.8,0.2-15.6,0.1-23.4,0.1c-10.9,0-10.9,0-12.5,10.3c-0.4,2.4-0.8,4.8-1.4,7.1
	c-10.5,36.9-21,73.9-31.5,110.8c-5.9,20.6-11.7,41.1-17.9,61.6c-1.7,5.6-0.1,7.8,5.6,7.7c5.8-0.1,11.7-0.2,17.5,0
	c4.6,0.2,7.1-1.5,8.3-6.1c3.9-14.8,8.2-29.5,12-44.3c1-4,2.6-5.8,6.8-5.8c15.3,0.1,30.7,0.1,46,0c3.8,0,5.6,1.3,6.5,5.1
	c3,11.8,6.7,23.3,9.9,35.1C705,411.2,701.3,408.4,721.1,408.7z M788.8,336.4c0-22.1-0.1-44.2,0.1-66.4c0.1-5.4-1.7-7.5-7.1-7.2
	c-6.1,0.3-12.2,0.3-18.2,0c-5-0.2-6.9,1.7-6.8,6.8c0.3,11.4,0.1,22.8,0.1,34.3c0,32.3,0.1,64.7-0.1,97c0,6.1,2,8.3,8,7.9
	c5.6-0.4,11.2-0.4,16.8,0c5.8,0.4,7.5-1.7,7.4-7.5C788.6,379.7,788.8,358.1,788.8,336.4z M754.4,222.7c0,12.6,5.6,18.5,17.8,18.4
	c11.6,0,16.6-5.5,16.6-17.8c0-11.9-5.5-17.3-17.3-17.2C759.9,206.1,754.4,211.5,754.4,222.7z"/>
<path class="st2" d="M1553.4,408.7c-19.7-0.3-16,2.5-21-16c-3.2-11.7-6.9-23.3-9.9-35.1c-1-3.8-2.8-5.1-6.5-5.1
	c-15.3,0.1-30.7,0.1-46,0c-4.2,0-5.8,1.8-6.8,5.8c-3.8,14.8-8.1,29.5-12,44.3c-1.2,4.6-3.7,6.3-8.3,6.1c-5.8-0.2-11.7-0.2-17.5,0
	c-5.7,0.1-7.3-2-5.6-7.7c6.2-20.5,12-41,17.9-61.6c10.6-36.9,21-73.9,31.5-110.8c0.7-2.3,1-4.7,1.4-7.1c1.6-10.3,1.6-10.3,12.5-10.3
	c7.8,0,15.6,0.2,23.4-0.1c4.6-0.1,7.1,1.5,8.5,6.1c17.9,60.6,35.9,121.2,53.8,181.8c2.6,9,2,9.7-7.2,9.7
	C1558.7,408.7,1556,408.7,1553.4,408.7z M1492.4,322.7c4.6,0,9.2-0.1,13.8,0c5.4,0.2,6.8-1.9,5.3-7.1c-5.6-20.3-10.9-40.8-16.3-61.2
	c-0.4-1.5-0.2-3.9-2.2-4.1c-2.9-0.2-2.3,2.6-2.7,4.3c-5.1,19.2-10.3,38.4-15.2,57.6c-2.7,10.4-2.5,10.4,8.5,10.4
	C1486.6,322.7,1489.5,322.7,1492.4,322.7z"/>
<path class="st2" d="M1621.1,336.4c0,21.6-0.2,43.3,0.1,64.9c0.1,5.8-1.6,7.9-7.4,7.5c-5.6-0.4-11.2-0.4-16.8,0c-6,0.4-8-1.7-8-7.9
	c0.2-32.3,0.1-64.7,0.1-97c0-11.4,0.2-22.9-0.1-34.3c-0.1-5.1,1.7-7,6.8-6.8c6.1,0.3,12.2,0.3,18.2,0c5.4-0.3,7.2,1.9,7.1,7.2
	C1621,292.2,1621.1,314.3,1621.1,336.4z"/>
<path class="st2" d="M1586.7,222.7c0-11.3,5.5-16.6,17.1-16.7c11.9,0,17.4,5.4,17.3,17.2c0,12.4-5.1,17.8-16.6,17.8
	C1592.3,241.2,1586.6,235.4,1586.7,222.7z"/>
<path class="st3" d="M660.1,322.7c-2.9,0-5.8,0-8.7,0c-11,0-11.2,0-8.5-10.4c4.9-19.2,10.1-38.4,15.2-57.6c0.4-1.7-0.1-4.5,2.7-4.3
	c2.1,0.2,1.8,2.6,2.2,4.1c5.4,20.4,10.7,40.8,16.3,61.2c1.4,5.2,0,7.3-5.3,7.1C669.3,322.5,664.7,322.7,660.1,322.7z"/>
</svg>
