<?xml version="1.0" encoding="utf-8"?>
<!-- Generator: Adobe Illustrator 22.0.0, SVG Export Plug-In . SVG Version: 6.00 Build 0)  -->
<svg version="1.1" id="Layer_1" xmlns="http://www.w3.org/2000/svg" xmlns:xlink="http://www.w3.org/1999/xlink" x="0px" y="0px"
	 viewBox="0 0 1366 768" style="enable-background:new 0 0 1366 768;" xml:space="preserve">
<style type="text/css">
	.st0{fill:#24C4F9;}
	.st1{fill:#061E26;}
	.st2{fill:#F98715;}
	.st3{fill:#271502;}
	.st4{fill:#E7E8DF;}
	.st5{fill:#0396E5;}
	.st6{fill:#E8E8DF;}
	.st7{fill:#EB6631;}
	.st8{fill:#EDAF4B;}
</style>
<g>
	<path class="st0" d="M-1288.2-3359.8c0-32.8,0-65.6,0-98.4c0-7.1,0.6-8.3,7.4-8.3c20.8-0.1,41.8-1.6,62.3,0.9
		c31.4,3.8,51.7,21.1,56.9,53.8c3.5,22.3-0.2,43.8-16.6,61.4c-8.9,9.5-19.9,15.3-32.4,17.6c-11.7,2.1-23.7,2.3-35.6,3
		c-6.7,0.4-6.7,0.1-6.7,6.6c0,20.8,0,41.6,0,62.4c0,5.9-0.6,6.5-6.7,6.5c-7.3,0-14.7,0-22,0c-5.9,0-6.6-0.7-6.6-6.6
		C-1288.2-3293.9-1288.2-3326.9-1288.2-3359.8z M-1253.8-3398.4C-1253.8-3398.4-1253.8-3398.4-1253.8-3398.4c0,10.5,0,21,0,31.5
		c0,3.5,1.1,5.3,4.9,5.2c6.7-0.2,13.4,0.2,20-0.5c9.4-0.9,18.4-3.2,24.9-11c9-10.7,9.5-23.2,6.9-35.9c-2.6-13-11-21.4-24-23.8
		c-8.9-1.6-18.1-1.1-27.2-1.7c-4.2-0.3-5.6,1.7-5.5,5.7C-1253.7-3418.7-1253.8-3408.5-1253.8-3398.4z"/>
	<path class="st0" d="M-1143.5-3276.4c0-3.2,0-6.3,0-9.5c0.1-6.1,1.4-7,6.6-4.1c11.7,6.4,24,10.7,37.7,9.5c9.9-0.8,17.4-8,16.2-17.1
		c-0.5-3.7-2.8-8.2-5.8-10.4c-7.1-5.3-14.9-9.9-22.8-14.1c-11.2-6-21-13.2-27.2-24.7c-12-22.1-0.4-53.3,23.1-62.1
		c17.8-6.7,35.5-5.2,53.2,0.4c3.4,1.1,5.2,3.4,5.1,7.1c-0.1,6.7,0,13.3,0,20c-0.1,5.5-1.8,6.1-6.8,4.2c-8-3.1-16.1-6.3-24.4-8
		c-7.5-1.5-14.9,0.5-20.1,7.2c-5.4,6.9-5.1,13.8,2.1,19.1c7.4,5.4,15.4,9.8,23.4,14.2c9.9,5.5,20,10.9,26.4,20.7
		c17.9,27.4,3,62.5-28.9,69.6c-16.3,3.6-32,2.4-47.6-2.4c-10-3.1-10.3-3.6-10.3-13.9C-1143.5-3272.8-1143.5-3274.6-1143.5-3276.4
		C-1143.5-3276.4-1143.5-3276.4-1143.5-3276.4z"/>
</g>
<g>
	<path class="st0" d="M-404.1-792.4c0-82.8,0-165.6,0-248.4c0-26.5,18.6-50.8,44.3-57.3c6.8-1.7,14-2.8,21-2.8
		c95.5-0.2,191-0.1,286.4-0.2c20.2,0,35.8,8.9,49.5,23.1c15.1,15.5,31.1,30.1,46.4,45.4c15.3,15.3,30.7,30.6,44.9,46.8
		c8.3,9.4,11.2,21.6,11.2,34.4c-0.1,136.1-0.2,272.3,0.1,408.4c0,25.9-21.4,51-43.9,56.9c-6.7,1.7-13.7,2.8-20.6,2.8
		c-125.6,0.2-251.3,0-376.9,0.2c-32.9,0.1-62.9-28.4-62.6-62.4C-403.6-627.7-404.1-710-404.1-792.4z M-383.3-791.9
		c0,25.2,0,50.3,0,75.5c0,56.5-0.1,113,0.1,169.5c0.1,16.4,7.6,29,22.1,37.1c8.5,4.8,17.8,5.1,27.2,5.1c83,0,166,0,249,0
		c41.3,0,82.7,0.1,124-0.4c21.1-0.2,39-19.6,39-39.2c-0.2-135.8-0.1-271.7-0.1-407.5c0-10.9-4.1-19.7-11.7-27.1
		c-12.6-12.4-25.3-24.6-37.9-37c-17.6-17.3-35-34.7-52.8-51.8c-8-7.7-17.7-12.3-29.1-12.3c-95.7,0-191.3,0-287,0.1
		c-3.6,0-7.4,0.3-10.8,1.4c-20.1,6.2-31.9,22.5-31.9,43.8C-383.3-953.9-383.3-872.9-383.3-791.9z"/>
	<path class="st1" d="M-383.3-791.9c0-81,0-162,0-243c0-21.3,11.8-37.6,31.9-43.8c3.4-1.1,7.2-1.4,10.8-1.4
		c95.7-0.1,191.3-0.1,287-0.1c11.5,0,21.1,4.6,29.1,12.3c17.7,17.1,35.2,34.5,52.8,51.8c12.6,12.4,25.3,24.6,37.9,37
		c7.6,7.4,11.7,16.2,11.7,27.1C77.8-816,77.8-680.2,78-544.4c0,19.6-17.8,39-39,39.2c-41.3,0.5-82.7,0.4-124,0.4c-83,0-166,0-249,0
		c-9.4,0-18.7-0.3-27.2-5.1c-14.5-8.1-22-20.7-22.1-37.1c-0.2-56.5-0.1-113-0.1-169.5C-383.3-741.6-383.3-766.7-383.3-791.9z
		 M-265.9-871.4c0,33,0,65.9,0,98.9c0,5.9,0.7,6.6,6.6,6.6c7.3,0,14.7,0,22,0c6,0,6.6-0.6,6.7-6.5c0-20.8,0-41.6,0-62.4
		c0-6.6,0-6.2,6.7-6.6c11.9-0.7,23.9-0.9,35.6-3c12.4-2.2,23.5-8.1,32.4-17.6c16.4-17.6,20.1-39.1,16.6-61.4
		c-5.1-32.7-25.4-50-56.9-53.8c-20.5-2.5-41.5-1-62.3-0.9c-6.8,0-7.4,1.2-7.4,8.3C-265.9-937.1-265.9-904.3-265.9-871.4z
		 M-121.2-788C-121.2-788-121.2-788-121.2-788c0,1.8,0,3.7,0,5.5c0,10.3,0.3,10.9,10.3,13.9c15.7,4.8,31.3,6,47.6,2.4
		c31.9-7.1,46.8-42.1,28.9-69.6c-6.4-9.8-16.5-15.2-26.4-20.7c-8-4.4-16-8.9-23.4-14.2c-7.3-5.3-7.5-12.1-2.1-19.1
		c5.2-6.6,12.5-8.7,20.1-7.2c8.3,1.7,16.4,5,24.4,8c5.1,2,6.8,1.3,6.8-4.2c0.1-6.7,0-13.3,0-20c0-3.7-1.8-6-5.1-7.1
		c-17.7-5.6-35.4-7.1-53.2-0.4c-23.5,8.8-35.1,40-23.1,62.1c6.2,11.5,16.1,18.7,27.2,24.7c7.8,4.3,15.6,8.8,22.8,14.1
		c2.9,2.2,5.3,6.7,5.8,10.4c1.2,9-6.4,16.2-16.2,17.1c-13.7,1.2-25.9-3.1-37.7-9.5c-5.2-2.9-6.6-1.9-6.6,4.1
		C-121.2-794.4-121.2-791.2-121.2-788z"/>
	<path class="st1" d="M-231.5-910c0-10.2,0.1-20.3,0-30.5c-0.1-4,1.3-6,5.5-5.7c9.1,0.6,18.3,0.1,27.2,1.7
		c12.9,2.3,21.4,10.8,24,23.8c2.6,12.7,2,25.2-6.9,35.9c-6.5,7.7-15.5,10-24.9,11c-6.6,0.7-13.3,0.2-20,0.5c-3.8,0.1-5-1.7-4.9-5.2
		C-231.4-889-231.5-899.5-231.5-910C-231.5-910-231.5-910-231.5-910z"/>
</g>
<g>
	<path class="st2" d="M-866.5-3258.6c-19.7-0.3-16,2.5-21-16c-3.2-11.7-6.9-23.3-9.9-35.1c-1-3.8-2.8-5.1-6.5-5.1
		c-15.3,0.1-30.7,0.1-46,0c-4.2,0-5.8,1.8-6.8,5.8c-3.8,14.8-8.1,29.5-12,44.3c-1.2,4.6-3.7,6.3-8.3,6.1c-5.8-0.2-11.7-0.2-17.5,0
		c-5.7,0.1-7.3-2-5.6-7.7c6.2-20.5,12-41,17.9-61.6c10.6-36.9,21-73.9,31.5-110.8c0.7-2.3,1-4.7,1.4-7.1
		c1.6-10.3,1.6-10.3,12.5-10.3c7.8,0,15.6,0.2,23.4-0.1c4.6-0.1,7.1,1.5,8.5,6.1c17.9,60.6,35.9,121.2,53.8,181.8
		c2.6,9,2,9.7-7.2,9.7C-861.2-3258.5-863.9-3258.6-866.5-3258.6z M-927.5-3344.6c4.6,0,9.2-0.1,13.8,0c5.4,0.2,6.8-1.9,5.3-7.1
		c-5.6-20.3-10.9-40.8-16.3-61.2c-0.4-1.5-0.2-3.9-2.2-4.1c-2.9-0.2-2.3,2.6-2.7,4.3c-5.1,19.2-10.3,38.4-15.2,57.6
		c-2.7,10.4-2.5,10.4,8.5,10.4C-933.3-3344.6-930.4-3344.6-927.5-3344.6z"/>
	<path class="st2" d="M-798.8-3330.8c0,21.6-0.2,43.3,0.1,64.9c0.1,5.8-1.6,7.9-7.4,7.5c-5.6-0.4-11.2-0.4-16.8,0
		c-6,0.4-8-1.7-8-7.9c0.2-32.3,0.1-64.7,0.1-97c0-11.4,0.2-22.9-0.1-34.3c-0.1-5.1,1.7-7,6.8-6.8c6.1,0.3,12.2,0.3,18.2,0
		c5.4-0.3,7.2,1.9,7.1,7.2C-798.9-3375.1-798.8-3352.9-798.8-3330.8z"/>
	<path class="st2" d="M-833.2-3444.5c0-11.3,5.5-16.6,17.1-16.7c11.9,0,17.4,5.4,17.3,17.2c0,12.4-5.1,17.8-16.6,17.8
		C-827.6-3426.1-833.3-3431.9-833.2-3444.5z"/>
</g>
<g>
	<path class="st2" d="M-1227.5-792c0-77.9,0.2-155.9-0.1-233.8c-0.2-35.5,32.5-58.3,58.1-58.2c90.8,0.3,181.7,0.3,272.5,0
		c17.2-0.1,31.4,6.2,43.3,17.7c28.3,27.5,56,55.5,84.1,83.1c11.6,11.4,17.3,25.5,17.3,41.3c0.2,127.1,0.2,254.2,0.1,381.4
		c0,34.3-26.6,60.4-60.9,60.4c-118.1,0-236.2,0.2-354.3-0.1c-34.3-0.1-60.5-28-60.2-60.2C-1227.1-637.6-1227.5-714.8-1227.5-792z
		 M-1207.4-791.5c0,76.5,0,152.9,0,229.4c0,21.2,10.7,35.1,31.3,40c4.7,1.1,9.7,1.1,14.5,1.1c114.2,0.1,228.4,0,342.6,0
		c2.9,0,5.8-0.1,8.8-0.3c21.8-1.3,37.2-17.4,37.2-39.1c0-126.9,0-253.8,0.1-380.6c0-11.4-4-20.7-12.1-28.7
		c-27.5-26.9-54.9-53.9-82.3-80.9c-9.1-9-19.8-13.4-32.7-13.4c-87.7,0.2-175.3,0.1-263,0.1c-28.2,0-44.3,16.2-44.3,44.4
		C-1207.4-943.5-1207.4-867.5-1207.4-791.5z"/>
	<path class="st3" d="M-1207.4-791.5c0-76,0-152,0-227.9c0-28.2,16.1-44.4,44.3-44.4c87.7,0,175.3,0.1,263-0.1
		c13,0,23.6,4.4,32.7,13.4c27.4,27,54.8,54,82.3,80.9c8.1,7.9,12.1,17.2,12.1,28.7c-0.1,126.9,0,253.8-0.1,380.6
		c0,21.7-15.4,37.8-37.2,39.1c-2.9,0.2-5.8,0.3-8.8,0.3c-114.2,0-228.4,0-342.6,0c-4.8,0-9.8,0-14.5-1.1
		c-20.6-4.9-31.3-18.8-31.3-40C-1207.4-638.6-1207.4-715.1-1207.4-791.5z M-964.2-767.9c2.7,0,5.4,0,8,0c9.2,0,9.8-0.8,7.2-9.7
		c-17.9-60.6-35.9-121.2-53.8-181.8c-1.3-4.6-3.9-6.2-8.5-6.1c-7.8,0.2-15.6,0.1-23.4,0.1c-10.9,0-10.9,0-12.5,10.3
		c-0.4,2.4-0.8,4.8-1.4,7.1c-10.5,36.9-21,73.9-31.5,110.8c-5.9,20.6-11.7,41.1-17.9,61.6c-1.7,5.6-0.1,7.8,5.6,7.7
		c5.8-0.1,11.7-0.2,17.5,0c4.6,0.2,7.1-1.5,8.3-6.1c3.9-14.8,8.2-29.5,12-44.3c1-4,2.6-5.8,6.8-5.8c15.3,0.1,30.7,0.1,46,0
		c3.8,0,5.6,1.3,6.5,5.1c3,11.8,6.7,23.3,9.9,35.1C-980.2-765.4-983.9-768.2-964.2-767.9z M-896.4-840.2c0-22.1-0.1-44.2,0.1-66.4
		c0.1-5.4-1.7-7.5-7.1-7.2c-6.1,0.3-12.2,0.3-18.2,0c-5-0.2-6.9,1.7-6.8,6.8c0.3,11.4,0.1,22.8,0.1,34.3c0,32.3,0.1,64.7-0.1,97
		c0,6.1,2,8.3,8,7.9c5.6-0.4,11.2-0.4,16.8,0c5.8,0.4,7.5-1.7,7.4-7.5C-896.6-796.9-896.4-818.5-896.4-840.2z M-930.9-953.9
		c0,12.6,5.6,18.5,17.8,18.4c11.6,0,16.6-5.5,16.6-17.8c0-11.9-5.5-17.3-17.3-17.2C-925.3-970.5-930.9-965.1-930.9-953.9z"/>
	<path class="st3" d="M-1025.1-853.9c-2.9,0-5.8,0-8.7,0c-11,0-11.2,0-8.5-10.4c4.9-19.2,10.1-38.4,15.2-57.6
		c0.4-1.7-0.1-4.5,2.7-4.3c2.1,0.2,1.8,2.6,2.2,4.1c5.4,20.4,10.7,40.8,16.3,61.2c1.4,5.2,0,7.3-5.3,7.1
		C-1015.9-854.1-1020.5-853.9-1025.1-853.9z"/>
</g>
<g>
	<path class="st4" d="M420.1-659c-0.1-2.5-0.2-4.9-0.2-7.4c0-146.6,0.1-293.2-0.1-439.9c0-14.5,7.6-23,23.1-23
		c113.8,0.4,227.6,0.2,341.4,0.1c5.7,0,9.6,1.4,13.9,5.7c44,44.5,88.3,88.7,132.6,132.9c4.7,4.7,7.2,10,7.2,16.9
		c-0.1,102.4-0.1,204.9-0.1,307.3c0,2.5-0.1,4.9-0.2,7.4c-2.1-0.1-4.1-0.2-6.2-0.2c-167.1,0-334.3,0-501.4,0
		C426.7-659.2,423.4-659,420.1-659z M587.6-743.9c7,0.1,11.9-3.8,12.6-10.1c0.8-7-3.2-12.3-10.2-13.8c-10.9-2.2-13.5-5.3-13.5-16.2
		c0-14-0.1-28.1,0-42.1c0.1-13.4-4.1-25.1-13.5-34.7c-2.5-2.5-2.4-4.1,0-6.6c10.4-10.7,13.8-23.9,13.6-38.5
		c-0.3-13.6-0.1-27.2,0-40.9c0.1-8,4.5-13.1,11.9-14c8.7-1.1,12.9-6.2,11.7-14c-1-6.5-8.1-10.9-15.5-9.7
		c-19.7,3.2-32.1,17.8-32.1,37.7c0,14.7,0.1,29.3,0,44c-0.2,15.9-8.5,25-24.1,26.8c-7.2,0.8-12.5,6-12.4,12.2
		c0.1,5.9,5,10.6,12.3,11.6c16.4,2.2,24.2,11.1,24.2,27.8c0,14.9,0,29.7,0,44.6C552.6-760.6,568.6-744.2,587.6-743.9z M793-923.9
		c0-7.8,0-15.7,0-23.5c0-17.9-11.7-31.6-27.1-35.5c-4.5-1.2-8.8-2-13.3-0.1c-5.6,2.4-7.8,6.7-6.8,12.4c0.9,5.4,4.3,8.7,9.9,9.5
		c9.5,1.2,14.2,6.4,14.2,16.1c0,15.1,0.2,30.1,0,45.2c-0.2,12.5,4,23,12.6,31.8c2.7,2.7,3.1,4.4,0.2,7.5c-8.3,8.9-13,19.3-12.8,31.8
		c0.3,14.2,0.1,28.5,0.1,42.7c0,13-2.6,16.2-15.2,19c-6,1.3-9.1,5.2-9.1,11.4c0,5.5,3.6,10.1,9.1,10.9c5.8,0.8,11.4,0.2,16.9-2.4
		c14.9-7.1,21.2-19.4,21.3-35.3c0.1-14.7,0-29.3,0-44c0-4.4,0.7-8.7,2.7-12.6c4.6-8.9,12.3-13,22-13.7c5.6-0.4,9.2-3.1,10.8-8.5
		c1.4-5-0.4-9-4.1-12.1c-3-2.5-6.9-2.4-10.5-3.1c-12.7-2.5-20.5-11.8-20.7-24.7C792.9-908.7,793-916.3,793-923.9z"/>
	<path class="st5" d="M420.1-659c3.3-0.1,6.6-0.2,9.9-0.2c167.1,0,334.3,0,501.4,0c2.1,0,4.1,0.1,6.2,0.2c0,14.2,0.1,28.4,0.1,42.6
		c0,49.3,0.1,98.5,0.1,147.8c-1.4,0.8-1.5,2.2-1.6,3.6c-4.7,7-10.8,10.2-19.6,10.2c-158.3-0.2-316.5-0.2-474.8,0
		c-9.5,0-16.1-3.3-20.8-11.2c0.3-1.1,0.1-2-1-2.6c0-61.8,0-123.6,0-185.4C420-655.7,420.1-657.3,420.1-659z M780.4-614.6
		c-3.6,0.3-7.7,0.6-11.8,1.1c-15.7,2.1-28.9,20.8-26.7,36.3c1.8,12.7,9.8,20,19.6,26.1c6.9,4.3,14.4,7.9,21.4,12.1
		c6.1,3.6,10.7,8.5,10,16.4c-0.8,8.5-5.6,13.4-13.6,15.5c-5.3,1.4-10.6,1-15.9-0.4c-5.1-1.4-10.2-3-15.4-4.3c-1.4-0.4-3-1.6-4.3,0.6
		c-5.2,8.7-2.8,13.9,6.9,17.6c10.9,4.1,22,4.2,32.8,2.3c16.1-2.8,28.3-16.4,28.5-32.6c0.2-14.1-8.9-26.5-23.2-32.7
		c-7.7-3.3-15.6-6.2-22-12.1c-8.2-7.6-7.9-17.4,1-24.2c8.7-6.7,18.1-5.3,27.7-2.3c1.4,0.4,2.9,2.4,4.3,0.2c2.1-3.5,4.3-7,6-10.8
		c1-2.4-0.5-3.9-3.1-4.9C795.6-613.6,788.3-614.1,780.4-614.6z M690.9-614.6c-6.5,0.6-12.6,1-18.7,3.7c-21.4,9.4-26.5,39.2-8.6,53.6
		c4.7,3.7,9.7,6.8,14.9,9.7c7,3.8,14.5,6.8,20.3,12.6c9,9.1,6.1,22.3-5.9,26.8c-10.7,4.1-20.6,0.5-30.6-2.7
		c-2.6-0.8-5.8-3.6-8.1,0.6c-2.4,4.3-1.9,12.1,1.2,13.7c16.1,8.4,33,9.3,49.2,1.5c15.8-7.7,22.4-25.2,15.3-42.5
		c-3.9-9.5-12.2-14.6-20.9-19.2c-7.3-3.8-15.2-6.3-21.4-12c-7.9-7.3-7.9-16.7,0.3-23.5c8.6-7.1,18.3-6.2,28.1-3
		c1.4,0.5,2.7,2.5,4.3,0.5c2.7-3.6,5-7.5,6.3-11.8c0.7-2.5-1.3-3.3-3.5-4.2C705.9-614,698.3-613.8,690.9-614.6z M561.8-552.5
		c1-9.2,1-18.4,4.7-27.2c6.9-16.7,25-22.8,37.9-14.6c7,4.5,10.8,4.3,15.5-1.5c0.5-0.6,1.2-1.2,1.9-1.6c4.6-2.8,3.3-4.9-0.3-7.6
		c-23.9-18.2-60.3-9.7-73,17.6c-9.4,20.3-9.6,41.3-3.1,62.6c10.2,33.5,44.8,41.8,69.5,29.5c12.1-6,11.9-7.4,2-16.3
		c-3.4-3-5.4-3.1-9.3-0.4c-15.5,11.1-33.6,4.5-41-12.5C562.7-533.5,562.6-543,561.8-552.5z"/>
	<path class="st4" d="M936.2-465c0-1.4,0.1-2.8,1.6-3.6C939.9-466.2,939-465.2,936.2-465z"/>
	<path class="st4" d="M419.9-468.6c1.1,0.6,1.3,1.5,1,2.6C419.3-466.4,418-466.9,419.9-468.6z"/>
	<path class="st5" d="M587.6-743.9c-19-0.3-35-16.7-35-35.9c0-14.9,0-29.7,0-44.6c0-16.7-7.8-25.6-24.2-27.8
		c-7.2-1-12.2-5.7-12.3-11.6c-0.1-6.2,5.2-11.4,12.4-12.2c15.6-1.8,23.9-10.9,24.1-26.8c0.2-14.7,0-29.3,0-44
		c-0.1-19.8,12.4-34.5,32.1-37.7c7.4-1.2,14.5,3.2,15.5,9.7c1.2,7.8-3.1,12.9-11.7,14c-7.4,0.9-11.8,6-11.9,14
		c-0.1,13.6-0.2,27.2,0,40.9c0.3,14.6-3.1,27.8-13.6,38.5c-2.4,2.5-2.4,4.1,0,6.6c9.4,9.6,13.6,21.3,13.5,34.7
		c-0.1,14,0,28.1,0,42.1c0,11,2.5,14,13.5,16.2c7.1,1.4,11,6.7,10.2,13.8C599.6-747.7,594.6-743.8,587.6-743.9z"/>
	<path class="st5" d="M793-923.9c0,7.6-0.1,15.3,0,22.9c0.2,12.9,8,22.2,20.7,24.7c3.6,0.7,7.5,0.7,10.5,3.1
		c3.8,3.1,5.6,7.1,4.1,12.1c-1.6,5.4-5.1,8.1-10.8,8.5c-9.7,0.6-17.4,4.8-22,13.7c-2,3.9-2.7,8.2-2.7,12.6c0,14.7,0.1,29.3,0,44
		c-0.1,15.9-6.4,28.2-21.3,35.3c-5.4,2.6-11.1,3.2-16.9,2.4c-5.5-0.8-9.1-5.4-9.1-10.9c0-6.2,3.1-10.1,9.1-11.4
		c12.6-2.8,15.2-6,15.2-19c0-14.2,0.3-28.5-0.1-42.7c-0.3-12.5,4.5-22.9,12.8-31.8c2.9-3.1,2.5-4.8-0.2-7.5
		c-8.6-8.8-12.8-19.4-12.6-31.8c0.3-15.1,0.1-30.1,0-45.2c0-9.6-4.7-14.9-14.2-16.1c-5.6-0.7-9-4.1-9.9-9.5c-1-5.7,1.2-10,6.8-12.4
		c4.5-1.9,8.7-1.1,13.3,0.1c15.4,3.9,27.1,17.6,27.1,35.5C793-939.6,793-931.8,793-923.9z"/>
</g>
<g>
	<path class="st6" d="M1242.8-667.8c-0.1-3.3-0.4-6.6-0.4-9.9c0-135.5,0-271,0-406.5c0-15.1,7.1-23.4,23-23.3
		c105,0.5,210.1,0.3,315.1,0.1c6.9,0,12.1,2.2,16.8,6.9c40.9,40.9,81.8,81.8,122.7,122.7c4.7,4.7,6.9,9.9,6.9,16.8
		c-0.2,94.4-0.1,188.8-0.2,283.2c0,3.3-0.3,6.6-0.4,9.9c-2.3-0.1-4.6-0.1-6.8-0.1c-138.1,0-276.2,0-414.2,0
		C1284.4-667.9,1263.6-667.8,1242.8-667.8z M1424.3-769.4c3-0.2,6.7-2.3,8.6-6.5c2.4-5.6,0.4-10.2-3.8-14.4
		c-17.8-17.7-35.4-35.5-53.4-53c-3.7-3.6-4.2-5.4-0.2-9.3c18.2-17.6,36-35.6,53.9-53.6c5.8-5.9,6-12.7,1.1-17.4
		c-5.2-5-11.4-4.7-17.4,1.3c-21.5,21.5-43,43-64.3,64.7c-7.4,7.5-7.2,12.2,0,19.5c21.4,21.6,42.9,43,64.4,64.5
		C1415.8-771,1418.7-769.3,1424.3-769.4z M1557.5-927.2c-0.8,0.2-2.1,0.3-3.2,0.7c-8.8,3-10.5,12.8-3.2,20.1
		c17.9,18,35.8,36,53.9,53.8c3.4,3.4,4,5.2,0.1,8.9c-17.7,17.1-34.9,34.7-52.3,52.1c-1.6,1.6-3.5,3.1-4.6,5.1
		c-2.9,5.2-2.5,10.3,2.2,14.5c4.9,4.3,11.3,3.7,16.9-1.9c21.7-21.7,43.3-43.5,64.9-65.3c6.1-6.1,6.3-11.6,0.1-17.9
		c-21.8-22-43.7-43.8-65.6-65.8C1564.2-925.4,1561.4-926.9,1557.5-927.2z"/>
	<path class="st7" d="M1242.8-667.8c20.8,0,41.6-0.1,62.4-0.1c138.1,0,276.2,0,414.2,0c2.3,0,4.6,0.1,6.8,0.1
		c0.2,3.5,0.4,7.1,0.4,10.6c0,53.3,0,106.6,0,159.9c0,14.9-5.7,20.7-20.6,20.7c-147.7,0-295.5,0-443.2,0c-14.9,0-20.6-5.8-20.6-20.7
		c0-54.6,0-109.2,0-163.7C1242.3-663.3,1242.6-665.5,1242.8-667.8z M1582.6-584.9c0,21.2,0.3,41.5-0.1,61.8
		c-0.2,13.5-3.2,12.6,12.7,12.8c4.5,0.1,6.2-1.1,6.2-6c-0.2-33.8-0.1-67.5-0.1-101.3c0-2,0.5-4.2-1.1-5.8c-3-3-17.6-0.3-19.4,3.8
		c-6.3,14.3-12.5,28.7-18.8,43.1c-4.1,9.5-8.3,19-13,29.7c-1.3-2.5-1.8-3.3-2.1-4.2c-9.9-22.7-19.8-45.4-29.7-68.1
		c-2.1-4.8-9.9-7-17.1-5.1c-5.2,1.4-3.3,5.7-3.4,8.8c-0.1,32.2,0.1,64.5-0.2,96.7c-0.1,6.9,2,9.3,8.6,8.3c1.5-0.2,3-0.1,4.6,0
		c4.2,0.3,6-1.3,5.8-5.7c-0.3-6.6-0.1-13.2-0.1-19.8c0-15.8,0-31.5,0-47.8c3,1.7,3.7,3.8,4.5,6c6.3,16,13,31.8,19,47.9
		c1.8,4.9,4.7,5.3,8.7,5c4.3-0.3,9.1,1.6,11.4-4.7c4.2-11.4,8.8-22.6,13.6-33.7C1575.7-570.1,1576.5-578.3,1582.6-584.9z
		 M1365.6-567.2c0-16.2-0.3-32.5,0.2-48.7c0.2-6.9-2.2-8.5-8.7-8.4c-6.5,0.1-10.5,0.6-10,8.8c0.7,11.6,0,23.3,0.3,35
		c0.1,4.5-1.3,6.4-6,6.3c-12.7-0.2-25.4-0.2-38,0c-3.9,0-5.3-1.1-5.2-5.2c0.4-11.1,0.2-22.3,0.2-33.5c0-13.3,0.9-10.7-11.4-11.4
		c-6.8-0.4-7.9,2.4-7.8,8.4c0.2,32.7,0.3,65.4,0,98.2c-0.1,6.3,1.9,8.2,7.7,7.4c1.5-0.2,3.1-0.2,4.6,0c5.8,0.9,7.4-1.5,7.2-7.2
		c-0.4-12.7,0-25.4-0.2-38c-0.1-4.3,1.3-5.8,5.6-5.7c12.4,0.2,24.9,0.2,37.3,0c4.6-0.1,6.3,1.4,6.2,6.1c-0.3,12.7,0.3,25.4-0.2,38
		c-0.4,8.1,4.7,6.7,9.4,6.7c4.6,0,9.6,1.6,9.3-6.7C1365.2-533.7,1365.6-550.5,1365.6-567.2z M1440.9-561.1c0-14.4,0.3-28.9-0.2-43.3
		c-0.2-6.1,2-7.3,7.4-7c7.1,0.4,14.2-0.1,21.3,0.2c4.9,0.2,5.2-2.6,5.1-6.3c-0.1-3.5,0.1-6.6-4.9-6.6c-25.3,0.1-50.7,0.1-76,0
		c-5.3,0-5.3,3.1-5.5,7c-0.2,4.1,1.1,6,5.5,5.9c7.1-0.3,14.2,0.3,21.3-0.2c5.8-0.4,7.3,1.6,7.2,7.3c-0.3,27.4-0.1,54.7-0.1,82.1
		c0,12,0,11.7,12.2,12c5.3,0.1,7-1.5,6.9-6.8C1440.7-531.7,1440.9-546.4,1440.9-561.1z M1629.5-567.2c0,16.7,0.2,33.5-0.1,50.2
		c-0.1,5.5,1.8,6.9,7,6.8c19.5-0.2,39-0.3,58.6,0c5.4,0.1,6.2-2.1,6.2-6.8c0-4.7-0.5-7.6-6.4-7.4c-13.2,0.4-26.4-0.1-39.5,0.2
		c-5.5,0.2-6.8-1.7-6.8-6.9c0.2-27.1,0.1-54.2,0.1-81.4c0-14.3,0.4-11.2-11.8-11.8c-5.8-0.3-7.3,2-7.2,7.5
		C1629.7-600.2,1629.5-583.7,1629.5-567.2z"/>
	<path class="st7" d="M1424.3-769.4c-5.6,0.1-8.5-1.7-11.1-4.3c-21.5-21.5-43-43-64.4-64.5c-7.2-7.3-7.4-12,0-19.5
		c21.3-21.7,42.8-43.2,64.3-64.7c6-6,12.2-6.3,17.4-1.3c4.9,4.7,4.7,11.6-1.1,17.4c-17.8,18-35.7,36-53.9,53.6
		c-4,3.9-3.5,5.7,0.2,9.3c18,17.5,35.6,35.4,53.4,53c4.2,4.1,6.3,8.8,3.8,14.4C1431-771.7,1427.3-769.5,1424.3-769.4z"/>
	<path class="st7" d="M1557.5-927.2c3.9,0.3,6.7,1.9,9.1,4.3c21.9,21.9,43.8,43.7,65.6,65.8c6.2,6.2,6,11.7-0.1,17.9
		c-21.6,21.8-43.2,43.6-64.9,65.3c-5.6,5.6-12,6.3-16.9,1.9c-4.6-4.1-5-9.2-2.2-14.5c1.1-1.9,3-3.5,4.6-5.1
		c17.4-17.4,34.6-35,52.3-52.1c3.9-3.7,3.3-5.6-0.1-8.9c-18.1-17.8-36-35.7-53.9-53.8c-7.2-7.3-5.5-17.1,3.2-20.1
		C1555.4-926.9,1556.7-927,1557.5-927.2z"/>
</g>
<g>
	<path class="st6" d="M419.2,519.2c-0.1-2.4-0.2-4.8-0.2-7.2c0-149.4,0-298.9,0-448.3c0-8.8,2-16.7,11.1-21.1
		c2.6-1.3,4.9-1.5,7.4-1.5c117.9,0,235.7,0,353.6-0.1c5.6,0,9.6,2.5,13.2,6c45.5,45.4,91,90.9,136.4,136.4c3.5,3.5,6.2,7.5,6.2,13
		C947,303.3,947,410.2,947,517.1c0,0.7-0.1,1.4-0.2,2.1c-2.9-0.1-5.7-0.2-8.6-0.2c-170.1,0-340.3,0-510.4,0
		C424.9,519,422,519.1,419.2,519.2z M554,373.1c0,6.9,0,13.9,0,20.8c0.1,20.6,10.8,34.1,30.8,39c9.4,2.3,16.3-1.4,18.4-9.7
		c1.9-7.5-2.6-13.4-11.9-15.5c-9.8-2.3-12-5-12-15.2c0-14.8,0-29.6,0-44.4c0-12.1-3.7-23.2-11.8-32.1c-3.7-4.1-4.1-6.6-0.4-10.5
		c9.2-10,12.4-22.1,12.3-35.4c-0.1-14.3-0.1-28.7,0-43c0.1-8.7,3.6-12.7,12-14.2c8.4-1.5,13-6.6,12.3-13.9
		c-0.6-6.7-7.1-11.5-15-11.3c-18.2,0.6-34.3,17.4-34.6,36.4c-0.2,15.8,0,31.5-0.1,47.3c-0.1,15.7-8.3,25-24,26.7
		c-4.1,0.4-7.4,1.7-9.9,4.9c-6.8,9-1.5,18.8,11.1,20.4c14.7,1.9,22.6,10.7,22.8,25.4C554.1,356.8,554,364.9,554,373.1z M775,366.2
		c0,8,0,13.9,0,19.9c0,17.1,0,17.1-15.7,22.7c-7,2.5-10.1,8.2-8.4,15.2c1.5,6.1,8.4,10.4,15,9.3c21.5-3.5,34.3-18.5,34.4-40.6
		c0.1-15.3-0.1-30.6,0.1-45.9c0.1-12,7.6-20.9,19.3-23.2c12.7-2.6,16.7-5.7,16.8-12.8c0.1-7.4-4.8-11.4-17.1-13.7
		c-11.7-2.2-18.9-10.5-19-22.3c-0.1-16.2,0.1-32.5-0.1-48.7c-0.3-20.9-17.8-39.2-36.6-38.4c-7.1,0.3-12.7,5.3-13.1,11.7
		c-0.4,7.1,3.7,12.1,11,13.4c10.3,1.9,13.3,5.5,13.3,16c0,14.6,0.3,29.1-0.1,43.7c-0.3,13.4,4.1,24.9,13.1,34.5
		c3.2,3.5,2.5,5.3-0.5,8c-4.7,4.2-7.3,9.8-9.7,15.7C772.8,342.9,776.1,355.7,775,366.2z M664.5,365.5c0,6-0.1,12,0,17.9
		c0.2,6.8,5.1,12.4,11,13.1c6.1,0.7,12.7-3.4,13.5-10.3c1.5-13.7,1.7-27.6-0.2-41.4c-0.9-6.4-7.5-11.1-12.6-10.6
		c-6.6,0.8-11.5,6.1-11.7,13.3C664.3,353.6,664.5,359.6,664.5,365.5z M658.6,266.7c-0.4,10.8,7.1,19.1,17.5,19.4
		c10.5,0.3,19.1-7.9,19.4-18.6c0.3-9.2-8.7-18.2-18.2-18.4C667.2,249,659,256.7,658.6,266.7z"/>
	<path class="st8" d="M419.2,519.2c2.9-0.1,5.7-0.2,8.6-0.2c170.1,0,340.3,0,510.4,0c2.9,0,5.7,0.1,8.6,0.2
		c0,63.6,0.1,127.2,0.1,190.7c0,8.6-7.6,16.3-16.2,16.9c-1.7,0.1-3.3,0.1-5,0.1c-161.8,0-323.6,0-485.4,0.1c-7.8,0-13.9-2-18.5-8.6
		c-1.7-2.5-2.8-4.8-2.8-7.8C419.1,646.8,419.1,583,419.2,519.2z M728.4,565.2c-3.6,0-7.2-0.4-10.7,0.1c-18.8,2.5-37.6,22.3-27.6,46
		c4.3,10.3,13.5,15.7,22.7,20.9c7,4,14.6,7,20.9,12.3c5.6,4.7,7,10.8,5.4,17.4c-1.4,5.9-5.3,9.6-11.6,11.4
		c-10.1,2.9-19.4,0.4-28.7-2.6c-8.5-2.8-9.6-2.2-11.2,6.4c-1.3,7,3.6,8.5,8.2,10.4c10.5,4.4,21.5,3.9,32.5,3
		c13.7-1.2,26.7-13.1,29.6-26.5c3.9-17.6-4.1-31.6-22.7-40.5c-7.5-3.6-15.4-6.4-21.9-12c-5-4.4-6.7-9.6-5.1-16
		c1.6-6.4,5.8-10.1,11.8-12.2c7.4-2.5,14.8-1.9,21.7,1.1c3.7,1.6,5.2,0.8,6.7-2.3c1.2-2.3,2.4-4.7,3.6-7c1.7-3.2,1-5-2.5-6.6
		C742.7,565.3,735.6,565.1,728.4,565.2z M659.5,617.1c0-14.8-0.3-29.6,0.1-44.4c0.2-7.1-2.5-9.7-9.3-8.9c-1.4,0.2-2.9,0.2-4.3,0
		c-6-0.9-7.8,1.5-7.7,7.5c0.3,28,0.2,55.9,0.1,83.9c0,12.8-5.5,18.2-18.3,18.6c-8.8,0.2-16.9-2.4-25-5.3c-7.5-2.6-7.7,4.9-10.4,8.2
		c-3,3.8,1.5,5.3,4,6.6c12,6,24.7,8.3,38.1,7.6c20.7-1.1,32.6-13,32.6-33.6C659.5,643.8,659.5,630.5,659.5,617.1z"/>
	<path class="st8" d="M554,373.1c0-8.1,0.1-16.2,0-24.4c-0.2-14.6-8.1-23.4-22.8-25.4c-12.6-1.7-17.9-11.4-11.1-20.4
		c2.5-3.3,5.8-4.5,9.9-4.9c15.6-1.7,23.9-10.9,24-26.7c0.1-15.8-0.1-31.5,0.1-47.3c0.2-18.9,16.4-35.8,34.6-36.4
		c7.9-0.3,14.4,4.6,15,11.3c0.6,7.2-3.9,12.3-12.3,13.9c-8.4,1.5-11.9,5.5-12,14.2c-0.1,14.3-0.1,28.7,0,43
		c0.1,13.3-3.1,25.5-12.3,35.4c-3.7,4-3.3,6.5,0.4,10.5c8.1,8.9,11.8,19.9,11.8,32.1c0,14.8,0,29.6,0,44.4c0,10.2,2.2,12.9,12,15.2
		c9.3,2.2,13.8,8,11.9,15.5c-2.1,8.3-9.1,11.9-18.4,9.7c-20-4.9-30.7-18.4-30.8-39C553.9,386.9,554,380,554,373.1z"/>
	<path class="st8" d="M775,366.2c1.1-10.5-2.1-23.3,2.8-35.6c2.4-5.8,4.9-11.4,9.7-15.7c3-2.7,3.8-4.6,0.5-8
		c-9-9.6-13.4-21.1-13.1-34.5c0.4-14.6,0.1-29.1,0.1-43.7c0-10.5-3-14-13.3-16c-7.4-1.4-11.5-6.4-11-13.4c0.4-6.4,6-11.4,13.1-11.7
		c18.8-0.7,36.3,17.5,36.6,38.4c0.2,16.2,0,32.5,0.1,48.7c0.1,11.8,7.3,20,19,22.3c12.2,2.3,17.1,6.3,17.1,13.7
		c-0.1,7.2-4.1,10.2-16.8,12.8c-11.7,2.4-19.2,11.3-19.3,23.2c-0.1,15.3,0,30.6-0.1,45.9c-0.1,22.1-12.8,37-34.4,40.6
		c-6.6,1.1-13.5-3.1-15-9.3c-1.7-7,1.5-12.8,8.4-15.2c15.7-5.5,15.7-5.5,15.7-22.7C775,380.2,775,374.2,775,366.2z"/>
	<path class="st8" d="M664.5,365.5c0-6-0.2-12,0-17.9c0.2-7.2,5.1-12.5,11.7-13.3c5.1-0.6,11.8,4.2,12.6,10.6
		c1.9,13.7,1.7,27.6,0.2,41.4c-0.7,6.9-7.4,11-13.5,10.3c-5.9-0.7-10.8-6.3-11-13.1C664.3,377.5,664.5,371.5,664.5,365.5z"/>
	<path class="st8" d="M658.6,266.7c0.3-10,8.5-17.7,18.7-17.5c9.5,0.1,18.5,9.2,18.2,18.4c-0.3,10.6-8.9,18.9-19.4,18.6
		C665.8,285.8,658.3,277.5,658.6,266.7z"/>
</g>
</svg>
