<?xml version="1.0" encoding="utf-8"?>
<!-- Generator: Adobe Illustrator 22.0.0, SVG Export Plug-In . SVG Version: 6.00 Build 0)  -->
<svg version="1.1" id="Layer_1" xmlns="http://www.w3.org/2000/svg" xmlns:xlink="http://www.w3.org/1999/xlink" x="0px" y="0px"
	 viewBox="0 0 908 602" style="enable-background:new 0 0 908 602;" xml:space="preserve">
<style type="text/css">
	.st0{fill:url(#SVGID_1_);}
	.st1{fill:url(#SVGID_2_);}
	.st2{fill:url(#SVGID_3_);}
	.st3{fill:url(#SVGID_4_);}
	.st4{fill:url(#SVGID_5_);}
	.st5{fill:url(#SVGID_6_);}
	.st6{fill:url(#SVGID_7_);}
	.st7{fill:url(#SVGID_8_);}
	.st8{fill:none;stroke:#000000;stroke-miterlimit:10;}
	.st9{fill:url(#SVGID_9_);}
	.st10{fill:url(#SVGID_10_);}
	.st11{fill:url(#SVGID_11_);}
	.st12{fill:url(#SVGID_12_);}
	.st13{fill:url(#SVGID_13_);}
	.st14{fill:url(#SVGID_14_);}
	.st15{fill:url(#SVGID_15_);}
	.st16{fill:url(#SVGID_16_);}
	.st17{fill:url(#SVGID_17_);}
	.st18{fill:url(#SVGID_18_);}
	.st19{fill:#00FFFF;}
	.st20{fill:url(#SVGID_19_);}
	.st21{fill:url(#SVGID_20_);}
	.st22{fill:url(#SVGID_21_);}
	.st23{opacity:0.35;enable-background:new    ;}
	.st24{fill:url(#SVGID_22_);}
	.st25{opacity:0.47;enable-background:new    ;}
</style>
<linearGradient id="SVGID_1_" gradientUnits="userSpaceOnUse" x1="-376.9455" y1="-376.418" x2="-48.4619" y2="-542.9097" gradientTransform="matrix(1 0 0 -1 0 601.9988)">
	<stop  offset="4.102564e-02" style="stop-color:#FF9772"/>
	<stop  offset="0.1625" style="stop-color:#FF8E6B"/>
	<stop  offset="0.3638" style="stop-color:#FF7458"/>
	<stop  offset="0.6201" style="stop-color:#FF4B39"/>
	<stop  offset="0.9185" style="stop-color:#FF130F"/>
	<stop  offset="1" style="stop-color:#FF0202"/>
</linearGradient>
<path class="st0" d="M-104.5,1034.2c0,24-5.3,46.8-14.9,67.2c-14.8,31.5-39.5,57.3-70.2,73.3c-21.3,11.1-45.4,17.6-70.9,17.9
	c48.5-1.2,87.6-40.3,88.8-88.8c0-0.8,0-1.6,0-2.4s0-1.6,0-2.3c-0.4-25.6-6.8-49.7-17.9-70.9C-216,977.6-269,943-330.1,943
	c-26.4,0-51.4,6.5-73.3,18c-50.6,26.4-85.2,79.4-85.2,140.5c0-124.6,101-225.7,225.7-225.7c1.4,0,2.7,0,4.1,0
	C-173.2,878-104.5,948.1-104.5,1034.2z"/>
<linearGradient id="SVGID_2_" gradientUnits="userSpaceOnUse" x1="-664.0329" y1="-403.6583" x2="-58.0328" y2="-913.6583" gradientTransform="matrix(1 0 0 -1 0 601.9988)">
	<stop  offset="4.102564e-02" style="stop-color:#FF9772"/>
	<stop  offset="0.1625" style="stop-color:#FF8E6B"/>
	<stop  offset="0.3638" style="stop-color:#FF7458"/>
	<stop  offset="0.6201" style="stop-color:#FF4B39"/>
	<stop  offset="0.9185" style="stop-color:#FF130F"/>
	<stop  offset="1" style="stop-color:#FF0202"/>
</linearGradient>
<path class="st1" d="M-403.6,1241.9c-7,5.6-13.7,11.7-20,18c-40.2-40.7-65-96.7-65-158.5C-488.6,1162.5-454.2,1215.4-403.6,1241.9z"
	/>
<linearGradient id="SVGID_3_" gradientUnits="userSpaceOnUse" x1="-454.4417" y1="-528.6968" x2="-230.9529" y2="-399.7032" gradientTransform="matrix(1 0 0 -1 0 601.9988)">
	<stop  offset="4.102564e-02" style="stop-color:#FF9772"/>
	<stop  offset="0.2212" style="stop-color:#FF946F"/>
	<stop  offset="0.3776" style="stop-color:#FF8967"/>
	<stop  offset="0.5253" style="stop-color:#FF775A"/>
	<stop  offset="0.6675" style="stop-color:#FF5E47"/>
	<stop  offset="0.8059" style="stop-color:#FF3E2F"/>
	<stop  offset="0.9395" style="stop-color:#FF1611"/>
	<stop  offset="1" style="stop-color:#FF0202"/>
</linearGradient>
<path class="st2" d="M-171.7,1099.1c-1.2-48.5-40.3-87.6-88.8-88.9c-0.8,0-1.6,0-2.4,0s-1.6,0-2.4,0c-62.5,0.9-116.2,38-141.2,91.2
	c-9.6,20.4-14.9,43.2-14.9,67.2c0,26.4,6.5,51.3,17.9,73.2c0,0,0,0-0.1,0c-50.6-26.4-85-79.4-85-140.4c0-61.1,34.5-114.1,85.2-140.5
	c21.9-11.5,46.8-18,73.3-18c61.1,0,114.1,34.5,140.5,85.2C-178.5,1049.4-172.1,1073.5-171.7,1099.1z"/>
<linearGradient id="SVGID_4_" gradientUnits="userSpaceOnUse" x1="-350.8755" y1="-363.8214" x2="-327.8756" y2="-748.8213" gradientTransform="matrix(1 0 0 -1 0 601.9988)">
	<stop  offset="0" style="stop-color:#FF0202"/>
	<stop  offset="8.149862e-02" style="stop-color:#FF130F"/>
	<stop  offset="0.3799" style="stop-color:#FF4B39"/>
	<stop  offset="0.6362" style="stop-color:#FF7458"/>
	<stop  offset="0.8375" style="stop-color:#FF8E6B"/>
	<stop  offset="0.959" style="stop-color:#FF9772"/>
</linearGradient>
<path class="st3" d="M-262.9,1192.7c-53.2,0-102,18.4-140.6,49.1c-11.4-21.9-17.9-46.8-17.9-73.2c0-24,5.3-46.8,14.9-67.2
	c25-53.2,78.7-90.3,141.2-91.2c-49.3,1.3-88.9,41.6-88.9,91.2s39.6,90,88.9,91.2C-264.5,1192.7-263.7,1192.7-262.9,1192.7z"/>
<linearGradient id="SVGID_5_" gradientUnits="userSpaceOnUse" x1="-673.9858" y1="-672.3322" x2="0.9805" y2="-1015.815" gradientTransform="matrix(1 0 0 -1 0 601.9988)">
	<stop  offset="0" style="stop-color:#FF0202"/>
	<stop  offset="8.149862e-02" style="stop-color:#FF130F"/>
	<stop  offset="0.3799" style="stop-color:#FF4B39"/>
	<stop  offset="0.6362" style="stop-color:#FF7458"/>
	<stop  offset="0.8375" style="stop-color:#FF8E6B"/>
	<stop  offset="0.959" style="stop-color:#FF9772"/>
</linearGradient>
<path class="st4" d="M-37.3,1418.4c0,124.6-101,225.7-225.7,225.7c-1.4,0-2.7,0-4.1-0.1c-85.6-2.2-154.4-72.3-154.4-158.4
	c0-24,5.3-46.8,14.9-67.2c14.8-31.5,39.5-57.3,70.2-73.3c21.3-11.1,45.4-17.5,70.9-17.9c-48.5,1.2-87.6,40.3-88.8,88.8
	c0,0.8,0,1.6,0,2.4s0,1.6,0,2.4c0.4,25.6,6.8,49.7,17.9,70.9c26.4,50.6,79.4,85.2,140.5,85.2c26.4,0,51.4-6.5,73.3-18
	C-71.8,1532.4-37.3,1479.4-37.3,1418.4z"/>
<linearGradient id="SVGID_6_" gradientUnits="userSpaceOnUse" x1="-662.7504" y1="-1085.6637" x2="27.2152" y2="-347.7007" gradientTransform="matrix(1 0 0 -1 0 601.9988)">
	<stop  offset="0" style="stop-color:#FF0202"/>
	<stop  offset="6.320083e-02" style="stop-color:#FF0B09"/>
	<stop  offset="0.1654" style="stop-color:#FF231B"/>
	<stop  offset="0.2938" style="stop-color:#FF4A38"/>
	<stop  offset="0.442" style="stop-color:#FF7F60"/>
	<stop  offset="0.5026" style="stop-color:#FF9772"/>
	<stop  offset="0.623" style="stop-color:#FF9470"/>
	<stop  offset="0.7038" style="stop-color:#FF8B69"/>
	<stop  offset="0.7731" style="stop-color:#FF7C5E"/>
	<stop  offset="0.8358" style="stop-color:#FF674E"/>
	<stop  offset="0.8941" style="stop-color:#FF4B39"/>
	<stop  offset="0.9484" style="stop-color:#FF2A20"/>
	<stop  offset="1" style="stop-color:#FF0202"/>
</linearGradient>
<path class="st5" d="M-37.3,1101.5c0,61.8-24.8,117.7-65,158.5c-6.3,6.4-13,12.4-20,18c0,0,0,0-0.1,0.1
	c-38.6,30.8-87.4,49.1-140.6,49.1c-0.8,0-1.6,0-2.4,0c-25.6,0.4-49.7,6.8-70.9,17.9c-30.7,16-55.5,41.8-70.2,73.3
	c-9.6,20.4-14.9,43.2-14.9,67.2c0,86.1,68.7,156.2,154.4,158.4c-122.7-2.2-221.6-102.4-221.6-225.6c0-61.8,24.8-117.7,65-158.4
	c6.3-6.4,13-12.4,20-18c0,0,0,0,0.1,0c38.6-30.8,87.4-49.1,140.6-49.1c0.8,0,1.6,0,2.4,0c25.6-0.4,49.7-6.8,70.9-17.9
	c30.7-16,55.5-41.8,70.2-73.3c9.6-20.4,14.9-43.2,14.9-67.2c0-86.1-68.7-156.2-154.4-158.4C-136.1,878-37.3,978.2-37.3,1101.5z"/>
<linearGradient id="SVGID_7_" gradientUnits="userSpaceOnUse" x1="259.382" y1="-713.7673" x2="-540.0779" y2="-932.7563" gradientTransform="matrix(1 0 0 -1 0 601.9988)">
	<stop  offset="4.102564e-02" style="stop-color:#FF9772"/>
	<stop  offset="0.1625" style="stop-color:#FF8E6B"/>
	<stop  offset="0.3638" style="stop-color:#FF7458"/>
	<stop  offset="0.6201" style="stop-color:#FF4B39"/>
	<stop  offset="0.9185" style="stop-color:#FF130F"/>
	<stop  offset="1" style="stop-color:#FF0202"/>
</linearGradient>
<path class="st6" d="M-37.3,1418.4c0,61.1-34.5,114.1-85.2,140.5c-21.9,11.5-46.8,18-73.3,18c-61.1,0-114.1-34.5-140.5-85.2
	c-11.1-21.3-17.5-45.3-17.9-70.9c1.2,48.5,40.3,87.6,88.8,88.8c0.8,0,1.6,0,2.4,0s1.6,0,2.4,0c62.5-0.9,116.2-38,141.2-91.2
	c9.6-20.4,14.9-43.2,14.9-67.2c0-26.4-6.5-51.3-17.9-73.1c0,0,0,0,0.1-0.1C-71.7,1304.4-37.3,1357.3-37.3,1418.4z"/>
<linearGradient id="SVGID_8_" gradientUnits="userSpaceOnUse" x1="-270.8216" y1="-1126.7522" x2="-146.8216" y2="-584.7521" gradientTransform="matrix(1 0 0 -1 0 601.9988)">
	<stop  offset="4.102564e-02" style="stop-color:#FF9772"/>
	<stop  offset="0.2983" style="stop-color:#FF9470"/>
	<stop  offset="0.4536" style="stop-color:#FF8C6A"/>
	<stop  offset="0.5817" style="stop-color:#FF7E5F"/>
	<stop  offset="0.6952" style="stop-color:#FF6950"/>
	<stop  offset="0.7989" style="stop-color:#FF4F3C"/>
	<stop  offset="0.8955" style="stop-color:#FF2F24"/>
	<stop  offset="0.985" style="stop-color:#FF0907"/>
	<stop  offset="1" style="stop-color:#FF0202"/>
</linearGradient>
<path class="st7" d="M-104.5,1351.1c0,24-5.3,46.8-14.9,67.2c-25,53.2-78.7,90.3-141.2,91.2c49.3-1.3,88.9-41.6,88.9-91.2
	s-39.6-90-88.9-91.2c-0.8,0-1.6,0-2.4,0c53.2,0,102-18.4,140.6-49.1C-110.9,1299.9-104.5,1324.8-104.5,1351.1z"/>
<g>
	<path class="st8" d="M579.7,966.4c0,14.5-3.2,28.2-9,40.5c-8.9,19-23.8,34.5-42.3,44.2c-12.8,6.7-27.3,10.6-42.7,10.8
		c29.2-0.7,52.8-24.3,53.5-53.5c0-0.5,0-0.9,0-1.4s0-1,0-1.4c-0.2-15.4-4.1-29.9-10.8-42.7c-15.9-30.5-47.9-51.3-84.7-51.3
		c-15.9,0-31,3.9-44.2,10.8c-30.5,15.9-51.3,47.9-51.3,84.7c0-75.1,60.9-136,136-136c0.8,0,1.7,0,2.5,0
		C538.2,872.2,579.7,914.5,579.7,966.4z"/>
	<path class="st8" d="M399.4,1091.5c-4.2,3.4-8.3,7-12.1,10.9c-24.2-24.6-39.2-58.3-39.2-95.5
		C348.2,1043.6,368.9,1075.6,399.4,1091.5z"/>
	<path class="st8" d="M399.5,1091.5h-0.1C399.4,1091.5,399.4,1091.5,399.5,1091.5L399.5,1091.5z"/>
	<path class="st8" d="M568.9,1113.2C568.9,1113.2,568.9,1113.3,568.9,1113.2C568.8,1113.2,568.8,1113.2,568.9,1113.2
		C568.9,1113.2,568.9,1113.2,568.9,1113.2z"/>
	<path class="st8" d="M539.1,1005.5c-0.7-29.2-24.3-52.8-53.5-53.5c-0.5,0-0.9,0-1.4,0s-1,0-1.4,0c-37.7,0.5-70,22.9-85.1,55
		c-5.8,12.3-9,26-9,40.5c0,15.9,3.9,30.9,10.8,44.1c0,0,0,0-0.1,0c-30.5-15.9-51.2-47.8-51.2-84.6c0-36.8,20.8-68.8,51.3-84.7
		c13.2-6.9,28.2-10.8,44.2-10.8c36.8,0,68.8,20.8,84.7,51.3C535,975.5,538.9,990,539.1,1005.5z"/>
	<path class="st8" d="M484.2,1061.9c-32,0-61.5,11.1-84.7,29.6c-6.9-13.2-10.8-28.2-10.8-44.1c0-14.5,3.2-28.2,9-40.5
		c15-32.1,47.4-54.4,85.1-55c-29.7,0.8-53.6,25.1-53.6,55s23.8,54.2,53.6,55C483.2,1061.9,483.7,1061.9,484.2,1061.9z"/>
	<path class="st8" d="M399.5,1091.5h-0.1C399.4,1091.5,399.4,1091.5,399.5,1091.5L399.5,1091.5z"/>
</g>
<path class="st8" d="M399.4,1091.5L399.4,1091.5C399.4,1091.5,399.5,1091.5,399.4,1091.5C399.5,1091.5,399.5,1091.5,399.4,1091.5z
	 M568.8,1113.2C568.9,1113.2,568.9,1113.2,568.8,1113.2C568.9,1113.3,568.9,1113.3,568.8,1113.2
	C568.9,1113.2,568.9,1113.2,568.8,1113.2z M581,1102.4c-3.8,3.8-7.8,7.5-12.1,10.9c30.5,15.9,51.2,47.8,51.2,84.6
	C620.2,1160.6,605.2,1126.9,581,1102.4z"/>
<path class="st8" d="M620.2,1197.9c0,75.1-60.9,136-136,136c-0.8,0-1.7,0-2.5,0c-51.6-1.3-93-43.6-93-95.5c0-14.5,3.2-28.2,9-40.5
	c8.9-19,23.8-34.5,42.3-44.2c12.8-6.7,27.3-10.6,42.7-10.8c-29.2,0.7-52.8,24.3-53.5,53.5c0,0.5,0,0.9,0,1.4s0,1,0,1.4
	c0.2,15.4,4.1,29.9,10.8,42.7c15.9,30.5,47.9,51.3,84.7,51.3c15.9,0,31-3.9,44.2-10.8C599.3,1266.6,620.2,1234.7,620.2,1197.9z"/>
<path class="st8" d="M620.2,1006.9c0,37.2-14.9,70.9-39.2,95.5c-3.8,3.8-7.8,7.5-12.1,10.9h-0.1c0,0,0,0,0.1,0.1
	c-23.3,18.5-52.7,29.6-84.7,29.6c-0.5,0-1,0-1.4,0c-15.4,0.2-29.9,4.1-42.7,10.8c-18.5,9.6-33.4,25.2-42.3,44.2
	c-5.8,12.3-9,26-9,40.5c0,51.9,41.4,94.1,93,95.5c-74-1.3-133.5-61.7-133.5-136c0-37.2,14.9-70.9,39.2-95.5
	c3.8-3.9,7.8-7.5,12.1-10.9h0.1c0,0,0,0,0-0.1c23.3-18.5,52.7-29.6,84.7-29.6c0.5,0,1,0,1.4,0c15.4-0.2,29.9-4.1,42.7-10.8
	c18.5-9.6,33.4-25.2,42.3-44.2c5.8-12.3,9-26,9-40.5c0-51.9-41.4-94.2-93-95.5C560.6,872.2,620.2,932.6,620.2,1006.9z"/>
<path class="st8" d="M620.2,1197.9c0,36.8-20.8,68.8-51.3,84.7c-13.2,6.9-28.2,10.8-44.2,10.8c-36.8,0-68.8-20.8-84.7-51.3
	c-6.7-12.8-10.6-27.3-10.8-42.7c0.7,29.2,24.3,52.8,53.5,53.5c0.5,0,0.9,0,1.4,0s1,0,1.4,0c37.7-0.5,70-22.9,85.1-55
	c5.8-12.3,9-26,9-40.5c0-15.9-3.9-30.9-10.8-44.1l0,0C599.4,1129.2,620.2,1161.1,620.2,1197.9z"/>
<path class="st8" d="M568.9,1113.2C568.9,1113.2,568.9,1113.3,568.9,1113.2C568.8,1113.2,568.8,1113.2,568.9,1113.2
	C568.9,1113.2,568.9,1113.2,568.9,1113.2z"/>
<path class="st8" d="M579.7,1157.3c0,14.5-3.2,28.2-9,40.5c-15,32.1-47.4,54.4-85.1,55c29.7-0.8,53.6-25.1,53.6-55
	s-23.9-54.2-53.6-55c-0.5,0-0.9,0-1.4,0c32,0,61.5-11.1,84.7-29.6C575.8,1126.4,579.7,1141.4,579.7,1157.3z"/>
<circle class="st8" cx="162.5" cy="1006.9" r="136"/>
<circle class="st8" cx="162.5" cy="1006.9" r="55"/>
<circle class="st8" cx="162.5" cy="966.4" r="95.5"/>
<circle class="st8" cx="162.5" cy="1047.4" r="95.5"/>
<circle class="st8" cx="122" cy="1006.9" r="95.5"/>
<circle class="st8" cx="162.5" cy="1197.9" r="136"/>
<circle class="st8" cx="162.5" cy="1238.4" r="95.5"/>
<circle class="st8" cx="162.5" cy="1157.3" r="95.5"/>
<circle class="st8" cx="203" cy="1197.9" r="95.5"/>
<linearGradient id="SVGID_9_" gradientUnits="userSpaceOnUse" x1="691.0359" y1="-1235.254" x2="914.5248" y2="-1106.2605" gradientTransform="matrix(-0.7986 -0.6018 -0.6018 0.7986 1046.4126 2261.6145)">
	<stop  offset="4.102564e-02" style="stop-color:#0F89FF"/>
	<stop  offset="0.2408" style="stop-color:#0F8CFE"/>
	<stop  offset="0.4143" style="stop-color:#0D97F9"/>
	<stop  offset="0.578" style="stop-color:#0BA9F2"/>
	<stop  offset="0.7357" style="stop-color:#08C2E8"/>
	<stop  offset="0.8877" style="stop-color:#04E2DC"/>
	<stop  offset="1" style="stop-color:#00FFD0"/>
</linearGradient>
<path class="st9" d="M993.1,714.5c-28.2,39.5-20.5,94.3,17.5,124.4c0.6,0.5,1.2,1,1.9,1.4c0.6,0.5,1.3,1,1.9,1.4
	c50.4,36.9,115.7,39.6,167.6,12.1c19.9-10.5,37.9-25.5,52.4-44.7c15.9-21.1,25.7-44.8,29.8-69.2h0.1
	c24.5,51.5,20.1,114.6-16.6,163.3c-36.8,48.8-96.2,70.3-152.6,61c-24.4-4-48.2-13.9-69.3-29.8c-48.8-36.8-70.3-96.2-61-152.6
	C968.6,758.2,978,735.1,993.1,714.5z"/>
<g>
	
		<linearGradient id="SVGID_10_" gradientUnits="userSpaceOnUse" x1="1441.7604" y1="160.5978" x2="1770.2439" y2="-5.8939" gradientTransform="matrix(9.286358e-07 -1 -1 -9.286358e-07 333.1002 1828.9319)">
		<stop  offset="4.102564e-02" style="stop-color:#0F89FF"/>
		<stop  offset="0.1855" style="stop-color:#0E92FB"/>
		<stop  offset="0.4249" style="stop-color:#0BACF1"/>
		<stop  offset="0.7276" style="stop-color:#05D4E1"/>
		<stop  offset="1" style="stop-color:#00FFD0"/>
	</linearGradient>
	<path class="st10" d="M228.3,114.7c24,0,46.8,5.3,67.2,14.9c31.5,14.7,57.3,39.5,73.3,70.2c11.1,21.3,17.6,45.4,17.9,70.9
		c-1.2-48.5-40.3-87.6-88.8-88.8c-0.8,0-1.6,0-2.4,0s-1.6,0-2.3,0c-25.6,0.4-49.7,6.8-70.9,17.9c-50.6,26.4-85.2,79.4-85.2,140.5
		c0,26.4,6.5,51.4,18,73.3c26.4,50.6,79.4,85.2,140.5,85.2c-124.6,0-225.7-101-225.7-225.7c0-1.4,0-2.7,0-4.1
		C72.1,183.4,142.2,114.7,228.3,114.7z"/>
	
		<linearGradient id="SVGID_11_" gradientUnits="userSpaceOnUse" x1="1154.6772" y1="133.3629" x2="1760.6777" y2="-376.6375" gradientTransform="matrix(9.286358e-07 -1 -1 -9.286358e-07 333.1002 1828.9319)">
		<stop  offset="4.102564e-02" style="stop-color:#0F89FF"/>
		<stop  offset="0.1855" style="stop-color:#0E92FB"/>
		<stop  offset="0.4249" style="stop-color:#0BACF1"/>
		<stop  offset="0.7276" style="stop-color:#05D4E1"/>
		<stop  offset="1" style="stop-color:#00FFD0"/>
	</linearGradient>
	<path class="st11" d="M436,413.8c5.6,7,11.7,13.7,18,20c-40.7,40.2-96.7,65-158.5,65C356.6,498.8,409.5,464.4,436,413.8z"/>
	
		<linearGradient id="SVGID_12_" gradientUnits="userSpaceOnUse" x1="1364.2531" y1="8.3421" x2="1587.7418" y2="137.3357" gradientTransform="matrix(9.286358e-07 -1 -1 -9.286358e-07 333.1002 1828.9319)">
		<stop  offset="4.102564e-02" style="stop-color:#0F89FF"/>
		<stop  offset="0.2408" style="stop-color:#0F8CFE"/>
		<stop  offset="0.4143" style="stop-color:#0D97F9"/>
		<stop  offset="0.578" style="stop-color:#0BA9F2"/>
		<stop  offset="0.7357" style="stop-color:#08C2E8"/>
		<stop  offset="0.8877" style="stop-color:#04E2DC"/>
		<stop  offset="1" style="stop-color:#00FFD0"/>
	</linearGradient>
	<path class="st12" d="M293.2,182c-48.5,1.2-87.6,40.3-88.8,88.8c0,0.8,0,1.6,0,2.4s0,1.6,0,2.4c0.9,62.5,38,116.2,91.2,141.2
		c20.4,9.6,43.2,14.9,67.2,14.9c26.4,0,51.3-6.5,73.1-17.9c0,0,0,0,0,0.1c-26.4,50.6-79.4,85-140.4,85
		c-61.1,0-114.1-34.5-140.5-85.2c-11.5-21.9-18-46.8-18-73.3c0-61.1,34.5-114.1,85.2-140.5C243.5,188.8,267.6,182.3,293.2,182z"/>
	
		<linearGradient id="SVGID_13_" gradientUnits="userSpaceOnUse" x1="1467.7506" y1="173.1918" x2="1490.7507" y2="-211.8087" gradientTransform="matrix(9.286358e-07 -1 -1 -9.286358e-07 333.1002 1828.9319)">
		<stop  offset="0" style="stop-color:#00FFD0"/>
		<stop  offset="0.2724" style="stop-color:#05D4E1"/>
		<stop  offset="0.5751" style="stop-color:#0BACF1"/>
		<stop  offset="0.8145" style="stop-color:#0E92FB"/>
		<stop  offset="0.959" style="stop-color:#0F89FF"/>
	</linearGradient>
	<path class="st13" d="M386.8,273.2c0,53.2,18.4,102,49.1,140.6c-21.9,11.4-46.8,17.9-73.1,17.9c-24,0-46.8-5.3-67.2-14.9
		c-53.2-25-90.3-78.7-91.2-141.2c1.3,49.3,41.6,88.9,91.2,88.9s90-39.6,91.2-88.9C386.8,274.7,386.8,274,386.8,273.2z"/>
	
		<linearGradient id="SVGID_14_" gradientUnits="userSpaceOnUse" x1="1545.7644" y1="-17.885" x2="1880.2478" y2="-317.8701" gradientTransform="matrix(9.286358e-07 -1 -1 -9.286358e-07 333.1002 1828.9319)">
		<stop  offset="4.102564e-02" style="stop-color:#0F89FF"/>
		<stop  offset="0.1855" style="stop-color:#0E92FB"/>
		<stop  offset="0.4249" style="stop-color:#0BACF1"/>
		<stop  offset="0.7276" style="stop-color:#05D4E1"/>
		<stop  offset="1" style="stop-color:#00FFD0"/>
	</linearGradient>
	<path class="st14" d="M454,112.5c6.4,6.3,12.4,13,18,20c26.4-50.6,79.4-85,140.4-85C550.7,47.5,494.7,72.3,454,112.5z"/>
	
		<linearGradient id="SVGID_15_" gradientUnits="userSpaceOnUse" x1="1144.7008" y1="-135.356" x2="1819.6667" y2="-478.8387" gradientTransform="matrix(9.286358e-07 -1 -1 -9.286358e-07 333.1002 1828.9319)">
		<stop  offset="0" style="stop-color:#00FFD0"/>
		<stop  offset="0.2724" style="stop-color:#05D4E1"/>
		<stop  offset="0.5751" style="stop-color:#0BACF1"/>
		<stop  offset="0.8145" style="stop-color:#0E92FB"/>
		<stop  offset="0.959" style="stop-color:#0F89FF"/>
	</linearGradient>
	<path class="st15" d="M612.5,47.5c124.6,0,225.7,101,225.7,225.7c0,1.4,0,2.7,0,4.1c-2.2,85.6-72.3,154.4-158.4,154.4
		c-24,0-46.8-5.3-67.2-14.9c-31.5-14.7-57.3-39.5-73.3-70.2c-11.1-21.3-17.5-45.4-17.9-70.9c1.2,48.5,40.3,87.6,88.8,88.8
		c0.8,0,1.6,0,2.4,0c0.8,0,1.6,0,2.4,0c25.6-0.4,49.7-6.8,70.9-17.9c50.6-26.4,85.2-79.4,85.2-140.5c0-26.4-6.5-51.4-18-73.3
		C726.5,82,673.5,47.5,612.5,47.5z"/>
	
		<linearGradient id="SVGID_16_" gradientUnits="userSpaceOnUse" x1="1155.9031" y1="-548.595" x2="1845.868" y2="189.3676" gradientTransform="matrix(9.286358e-07 -1 -1 -9.286358e-07 333.1002 1828.9319)">
		<stop  offset="0" style="stop-color:#00FFD0"/>
		<stop  offset="7.493453e-02" style="stop-color:#01F6D3"/>
		<stop  offset="0.1961" style="stop-color:#04DEDD"/>
		<stop  offset="0.3483" style="stop-color:#09B7EC"/>
		<stop  offset="0.5026" style="stop-color:#0F89FF"/>
		<stop  offset="0.6334" style="stop-color:#0F8CFE"/>
		<stop  offset="0.7212" style="stop-color:#0E95FA"/>
		<stop  offset="0.7965" style="stop-color:#0CA4F4"/>
		<stop  offset="0.8646" style="stop-color:#09B9EC"/>
		<stop  offset="0.9279" style="stop-color:#05D5E1"/>
		<stop  offset="0.9869" style="stop-color:#01F6D3"/>
		<stop  offset="1" style="stop-color:#00FFD0"/>
	</linearGradient>
	<path class="st16" d="M295.5,47.5c61.8,0,117.7,24.8,158.5,65c6.4,6.3,12.4,13,18,20c0,0,0,0,0,0.1c30.8,38.6,49.1,87.4,49.1,140.6
		c0,0.8,0,1.6,0,2.4c0.4,25.6,6.8,49.7,17.9,70.9c16,30.7,41.8,55.5,73.3,70.2c20.4,9.6,43.2,14.9,67.2,14.9
		c86.1,0,156.2-68.7,158.4-154.4c-2,122.8-102.2,221.6-225.4,221.6c-61.8,0-117.7-24.8-158.5-65c-6.4-6.3-12.4-13-18-20
		c0,0,0,0,0-0.1c-30.8-38.6-49.1-87.4-49.1-140.6c0-0.8,0-1.6,0-2.4c-0.4-25.6-6.8-49.7-17.9-70.9c-16-30.7-41.8-55.5-73.3-70.2
		c-20.4-9.6-43.2-14.9-67.2-14.9c-86.1,0-156.2,68.7-158.4,154.4C72.1,146.3,172.3,47.5,295.5,47.5z"/>
	
		<linearGradient id="SVGID_17_" gradientUnits="userSpaceOnUse" x1="2078.1045" y1="-176.8032" x2="1278.6444" y2="-395.7921" gradientTransform="matrix(9.286358e-07 -1 -1 -9.286358e-07 333.1002 1828.9319)">
		<stop  offset="4.102564e-02" style="stop-color:#0F89FF"/>
		<stop  offset="0.1855" style="stop-color:#0E92FB"/>
		<stop  offset="0.4249" style="stop-color:#0BACF1"/>
		<stop  offset="0.7276" style="stop-color:#05D4E1"/>
		<stop  offset="1" style="stop-color:#00FFD0"/>
	</linearGradient>
	<path class="st17" d="M612.5,47.5c61.1,0,114.1,34.5,140.5,85.2c11.5,21.9,18,46.8,18,73.3c0,61.1-34.5,114.1-85.2,140.5
		c-21.3,11.1-45.3,17.6-70.9,17.9c48.5-1.2,87.6-40.3,88.8-88.8c0-0.8,0-1.6,0-2.4s0-1.6,0-2.4c-0.9-62.5-38-116.2-91.2-141.2
		c-20.4-9.6-43.2-14.9-67.2-14.9c-26.4,0-51.3,6.5-73.1,17.9c0,0,0,0,0-0.1C498.5,82,551.4,47.5,612.5,47.5z"/>
	
		<linearGradient id="SVGID_18_" gradientUnits="userSpaceOnUse" x1="1547.9126" y1="-589.7405" x2="1671.9126" y2="-47.7401" gradientTransform="matrix(9.286358e-07 -1 -1 -9.286358e-07 333.1002 1828.9319)">
		<stop  offset="4.102564e-02" style="stop-color:#0F89FF"/>
		<stop  offset="0.3185" style="stop-color:#0F8CFE"/>
		<stop  offset="0.4859" style="stop-color:#0E94FB"/>
		<stop  offset="0.6241" style="stop-color:#0CA2F5"/>
		<stop  offset="0.7464" style="stop-color:#09B7ED"/>
		<stop  offset="0.8583" style="stop-color:#06D1E2"/>
		<stop  offset="0.961" style="stop-color:#02F1D6"/>
		<stop  offset="1" style="stop-color:#00FFD0"/>
	</linearGradient>
	<path class="st18" d="M545.2,114.7c24,0,46.8,5.3,67.2,14.9c53.2,25,90.3,78.7,91.2,141.2c-1.3-49.3-41.6-88.9-91.2-88.9
		c-49.6,0-90,39.6-91.2,88.9c0,0.8,0,1.6,0,2.4c0-53.2-18.4-102-49.1-140.6C494,121.2,518.8,114.7,545.2,114.7z"/>
	<circle class="st19" cx="295.5" cy="273.2" r="55"/>
	<linearGradient id="SVGID_19_" gradientUnits="userSpaceOnUse" x1="557.5" y1="273.2" x2="667.5" y2="273.2">
		<stop  offset="0" style="stop-color:#00FFD0"/>
		<stop  offset="0.1332" style="stop-color:#01F6D3"/>
		<stop  offset="0.3487" style="stop-color:#04DEDD"/>
		<stop  offset="0.6194" style="stop-color:#09B7EC"/>
		<stop  offset="0.8937" style="stop-color:#0F89FF"/>
	</linearGradient>
	<circle class="st20" cx="612.5" cy="273.2" r="55"/>
	
		<linearGradient id="SVGID_20_" gradientUnits="userSpaceOnUse" x1="298.2636" y1="333.2618" x2="332.7364" y2="304.3357" gradientTransform="matrix(1 0 0 -1 0 601.9988)">
		<stop  offset="0" style="stop-color:#00FFD0"/>
		<stop  offset="0.1332" style="stop-color:#01F6D3"/>
		<stop  offset="0.3487" style="stop-color:#04DEDD"/>
		<stop  offset="0.6194" style="stop-color:#09B7EC"/>
		<stop  offset="0.8937" style="stop-color:#0F89FF"/>
	</linearGradient>
	<circle class="st21" cx="315.5" cy="283.2" r="22.5"/>
	
		<linearGradient id="SVGID_21_" gradientUnits="userSpaceOnUse" x1="615.2211" y1="333.2974" x2="649.694" y2="304.3713" gradientTransform="matrix(1 0 0 -1 0 601.9988)">
		<stop  offset="0" style="stop-color:#00FFD0"/>
		<stop  offset="0.1332" style="stop-color:#01F6D3"/>
		<stop  offset="0.3487" style="stop-color:#04DEDD"/>
		<stop  offset="0.6194" style="stop-color:#09B7EC"/>
		<stop  offset="0.8937" style="stop-color:#0F89FF"/>
	</linearGradient>
	<circle class="st22" cx="632.5" cy="283.2" r="22.5"/>
	<ellipse class="st23" cx="467" cy="546.8" rx="177.9" ry="7.8"/>
</g>
<linearGradient id="SVGID_22_" gradientUnits="userSpaceOnUse" x1="1035.4347" y1="-295.5298" x2="1258.9235" y2="-166.5363" gradientTransform="matrix(-0.7986 -0.6018 -0.6018 0.7986 1046.4126 2261.6145)">
	<stop  offset="4.102564e-02" style="stop-color:#0F89FF"/>
	<stop  offset="0.2408" style="stop-color:#0F8CFE"/>
	<stop  offset="0.4143" style="stop-color:#0D97F9"/>
	<stop  offset="0.578" style="stop-color:#0BA9F2"/>
	<stop  offset="0.7357" style="stop-color:#08C2E8"/>
	<stop  offset="0.8877" style="stop-color:#04E2DC"/>
	<stop  offset="1" style="stop-color:#00FFD0"/>
</linearGradient>
<path class="st24" d="M152.5,1257.7c-28.2,39.5-20.5,94.3,17.5,124.4c0.6,0.5,1.2,1,1.9,1.4s1.3,1,1.9,1.4
	c50.4,36.9,115.7,39.6,167.6,12.1c19.9-10.5,37.9-25.5,52.4-44.7c15.9-21.1,25.7-44.8,29.8-69.2h0.1
	c24.5,51.5,20.1,114.6-16.6,163.3c-36.8,48.8-96.2,70.3-152.6,61c-24.4-4-48.2-13.9-69.3-29.8c-48.8-36.8-70.3-96.2-61-152.6
	C128.1,1301.4,137.4,1278.3,152.5,1257.7z"/>
<path class="st25" d="M1481.1,988.3c-61.8,0-117.7,24.8-158.4,65c-40.7-40.2-96.7-65-158.5-65c-123.3,0-223.4,98.8-225.6,221.6
	c0,1.4,0,2.7,0,4.1c0,124.6,101,225.7,225.7,225.7c23.3,0,45.7-3.5,66.8-10c-37.4-29.3-62.3-73.9-65.1-124.4c-0.6,0-1.2,0-1.7,0
	c-49.6,0-89.9-39.6-91.2-88.9c0-0.8,0-1.6,0-2.4s0-1.6,0-2.4c1.2-48.5,40.3-87.6,88.8-88.8c0.8,0,1.6,0,2.3,0c0.8,0,1.6,0,2.4,0
	c48.5,1.2,87.6,40.3,88.8,88.8c0,0.8,0,1.6,0,2.4s0,1.6,0,2.4c-1,39.6-27.2,72.9-63.2,84.5c26.8,87.3,105.5,95.1,105.5,95.1
	c8.8-6.5,23.2-19.6,31-27.3c9.7,9.6,25.8,32,25.8,32s87.6-24.3,115.1-96.2c-44.1-5.6-78.4-42.7-79.5-88.1c0-0.8,0-1.6,0-2.4
	s0-1.6,0-2.4c1.2-49.3,41.6-88.9,91.2-88.9s90,39.6,91.2,88.9c0,0.8,0,1.6,0,2.4s0,1.6,0,2.4c-1,40.9-29,75.1-66.8,85.6
	c-2,54.8-30,103.1-72,132.7c15.3,3.3,31.2,5,47.6,5c123.3,0,223.4-98.8,225.6-221.6c0-1.4,0-2.7,0-4.1
	C1706.8,1089.3,1605.7,988.3,1481.1,988.3z"/>
</svg>
