<?xml version="1.0" encoding="utf-8"?>
<!-- Generator: Adobe Illustrator 22.0.0, SVG Export Plug-In . SVG Version: 6.00 Build 0)  -->
<svg version="1.1" id="Layer_1" xmlns="http://www.w3.org/2000/svg" xmlns:xlink="http://www.w3.org/1999/xlink" x="0px" y="0px"
	 viewBox="0 0 1366 768" style="enable-background:new 0 0 1366 768;" xml:space="preserve">
<style type="text/css">
	.st0{fill:#24C4F9;}
	.st1{fill:#061E26;}
</style>
<path class="st0" d="M431.7,385c0-82.8,0-165.6,0-248.4c0-26.5,18.6-50.8,44.3-57.3c6.8-1.7,14-2.8,21-2.8
	c95.5-0.2,191-0.1,286.4-0.2c20.2,0,35.8,8.9,49.5,23.1c15.1,15.5,31.1,30.1,46.4,45.4c15.3,15.3,30.7,30.6,44.9,46.8
	c8.3,9.4,11.2,21.6,11.2,34.4c-0.1,136.1-0.2,272.3,0.1,408.4c0,25.9-21.4,51-43.9,56.9c-6.7,1.7-13.7,2.8-20.6,2.8
	c-125.6,0.2-251.3,0-376.9,0.2c-32.9,0.1-62.9-28.4-62.6-62.4C432.2,549.7,431.7,467.4,431.7,385z M452.5,385.5
	c0,25.2,0,50.3,0,75.5c0,56.5-0.1,113,0.1,169.5c0.1,16.4,7.6,29,22.1,37.1c8.5,4.8,17.8,5.1,27.2,5.1c83,0,166,0,249,0
	c41.3,0,82.7,0.1,124-0.4c21.1-0.2,39-19.6,39-39.2c-0.2-135.8-0.1-271.7-0.1-407.5c0-10.9-4.1-19.7-11.7-27.1
	c-12.6-12.4-25.3-24.6-37.9-37c-17.6-17.3-35-34.7-52.8-51.8c-8-7.7-17.7-12.3-29.1-12.3c-95.7,0-191.3,0-287,0.1
	c-3.6,0-7.4,0.3-10.8,1.4c-20.1,6.2-31.9,22.5-31.9,43.8C452.5,223.5,452.5,304.5,452.5,385.5z"/>
<path class="st1" d="M452.5,385.5c0-81,0-162,0-243c0-21.3,11.8-37.6,31.9-43.8c3.4-1.1,7.2-1.4,10.8-1.4
	c95.7-0.1,191.3-0.1,287-0.1c11.5,0,21.1,4.6,29.1,12.3c17.7,17.1,35.2,34.5,52.8,51.8c12.6,12.4,25.3,24.6,37.9,37
	c7.6,7.4,11.7,16.2,11.7,27.1c-0.1,135.8-0.2,271.7,0.1,407.5c0,19.6-17.8,39-39,39.2c-41.3,0.5-82.7,0.4-124,0.4c-83,0-166,0-249,0
	c-9.4,0-18.7-0.3-27.2-5.1c-14.5-8.1-22-20.7-22.1-37.1c-0.2-56.5-0.1-113-0.1-169.5C452.5,435.8,452.5,410.7,452.5,385.5z
	 M569.9,305.9c0,33,0,65.9,0,98.9c0,5.9,0.7,6.6,6.6,6.6c7.3,0,14.7,0,22,0c6,0,6.6-0.6,6.7-6.5c0-20.8,0-41.6,0-62.4
	c0-6.6,0-6.2,6.7-6.6c11.9-0.7,23.9-0.9,35.6-3c12.4-2.2,23.5-8.1,32.4-17.6c16.4-17.6,20.1-39.1,16.6-61.4
	c-5.1-32.7-25.4-50-56.9-53.8c-20.5-2.5-41.5-1-62.3-0.9c-6.8,0-7.4,1.2-7.4,8.3C569.9,240.3,569.9,273.1,569.9,305.9z M714.6,389.4
	C714.6,389.4,714.6,389.4,714.6,389.4c0,1.8,0,3.7,0,5.5c0,10.3,0.3,10.9,10.3,13.9c15.7,4.8,31.3,6,47.6,2.4
	c31.9-7.1,46.8-42.1,28.9-69.6c-6.4-9.8-16.5-15.2-26.4-20.7c-8-4.4-16-8.9-23.4-14.2c-7.3-5.3-7.5-12.1-2.1-19.1
	c5.2-6.6,12.5-8.7,20.1-7.2c8.3,1.7,16.4,5,24.4,8c5.1,2,6.8,1.3,6.8-4.2c0.1-6.7,0-13.3,0-20c0-3.7-1.8-6-5.1-7.1
	c-17.7-5.6-35.4-7.1-53.2-0.4c-23.5,8.8-35.1,40-23.1,62.1c6.2,11.5,16.1,18.7,27.2,24.7c7.8,4.3,15.6,8.8,22.8,14.1
	c2.9,2.2,5.3,6.7,5.8,10.4c1.2,9-6.4,16.2-16.2,17.1c-13.7,1.2-25.9-3.1-37.7-9.5c-5.2-2.9-6.6-1.9-6.6,4.1
	C714.6,383,714.6,386.2,714.6,389.4z"/>
<path class="st0" d="M1586.9,33.5c0-32.8,0-65.6,0-98.4c0-7.1,0.6-8.3,7.4-8.3c20.8-0.1,41.8-1.6,62.3,0.9
	c31.4,3.8,51.7,21.1,56.9,53.8c3.5,22.3-0.2,43.8-16.6,61.4c-8.9,9.5-19.9,15.3-32.4,17.6c-11.7,2.1-23.7,2.3-35.6,3
	c-6.7,0.4-6.7,0.1-6.7,6.6c0,20.8,0,41.6,0,62.4c0,5.9-0.6,6.5-6.7,6.5c-7.3,0-14.7,0-22,0c-5.9,0-6.6-0.7-6.6-6.6
	C1586.9,99.4,1586.9,66.5,1586.9,33.5z M1621.3-5.1C1621.3-5.1,1621.3-5.1,1621.3-5.1c0,10.5,0,21,0,31.5c0,3.5,1.1,5.3,4.9,5.2
	c6.7-0.2,13.4,0.2,20-0.5c9.4-0.9,18.4-3.2,24.9-11c9-10.7,9.5-23.2,6.9-35.9c-2.6-13-11-21.4-24-23.8c-8.9-1.6-18.1-1.1-27.2-1.7
	c-4.2-0.3-5.6,1.7-5.5,5.7C1621.4-25.4,1621.3-15.2,1621.3-5.1z"/>
<path class="st0" d="M1650.3,257.4c0-3.2,0-6.3,0-9.5c0.1-6.1,1.4-7,6.6-4.1c11.7,6.4,24,10.7,37.7,9.5c9.9-0.8,17.4-8,16.2-17.1
	c-0.5-3.7-2.8-8.2-5.8-10.4c-7.1-5.3-14.9-9.9-22.8-14.1c-11.2-6-21-13.2-27.2-24.7c-12-22.1-0.4-53.3,23.1-62.1
	c17.8-6.7,35.5-5.2,53.2,0.4c3.4,1.1,5.2,3.4,5.1,7.1c-0.1,6.7,0,13.3,0,20c-0.1,5.5-1.8,6.1-6.8,4.2c-8-3.1-16.1-6.3-24.4-8
	c-7.5-1.5-14.9,0.5-20.1,7.2c-5.4,6.9-5.1,13.8,2.1,19.1c7.4,5.4,15.4,9.8,23.4,14.2c9.9,5.5,20,10.9,26.4,20.7
	c17.9,27.4,3,62.5-28.9,69.6c-16.3,3.6-32,2.4-47.6-2.4c-10-3.1-10.3-3.6-10.3-13.9C1650.3,261,1650.3,259.2,1650.3,257.4
	C1650.3,257.4,1650.3,257.4,1650.3,257.4z"/>
<path class="st1" d="M604.4,267.4c0-10.2,0.1-20.3,0-30.5c-0.1-4,1.3-6,5.5-5.7c9.1,0.6,18.3,0.1,27.2,1.7
	c12.9,2.3,21.4,10.8,24,23.8c2.6,12.7,2,25.2-6.9,35.9c-6.5,7.7-15.5,10-24.9,11c-6.6,0.7-13.3,0.2-20,0.5c-3.8,0.1-5-1.7-4.9-5.2
	C604.4,288.4,604.3,277.9,604.4,267.4C604.3,267.4,604.4,267.4,604.4,267.4z"/>
</svg>
